<svg xmlns="http://www.w3.org/2000/svg" width="690.638" height="690.637" viewBox="0 0 690.638 690.637">
  <g id="Group_3" data-name="Group 3" transform="translate(-347.481 -153.48)">
    <g id="Group_1" data-name="Group 1" transform="translate(347.481 153.481)">
      <path id="Subtraction_1" data-name="Subtraction 1" d="M232.773,489.854h0A55.146,55.146,0,0,1,205.815,475L120.5,389.686l26.074-26.074,85.312,85.311c.286.286.583.565.883.829v40.1Zm26.153-.447V447.961L344.2,362.69l26.075,26.075L284.039,475a55.269,55.269,0,0,1-25.11,14.407ZM102.012,371.194,14.856,284.038A55.266,55.266,0,0,1,.447,258.925H41.89l86.2,86.2-26.073,26.073h0Zm286.751-.921v0h0L362.69,344.2l85.273-85.273h41.444A55.263,55.263,0,0,1,475,284.038l-86.234,86.234Zm101.091-137.5h-40.1c-.263-.3-.541-.6-.829-.883l-85.312-85.312L389.686,120.5,475,205.816a55.14,55.14,0,0,1,14.855,26.954Zm-449.754,0H0a55.141,55.141,0,0,1,14.856-26.956l86.234-86.235,26.074,26.074L40.929,231.89c-.284.284-.563.581-.828.882ZM345.12,128.086,258.926,41.891V.447a55.27,55.27,0,0,1,25.113,14.409l87.156,87.156-26.073,26.073h0Zm-199.466-.921v0L119.582,101.09l86.233-86.234A55.142,55.142,0,0,1,232.773,0V40.1c-.3.264-.6.542-.883.829l-86.234,86.234Z" transform="translate(99.47 99.47)"/>
      <path id="Subtraction_2" data-name="Subtraction 2" d="M339.892,690.637V358.42L104.978,593.333,97.3,585.659,332.217,350.746H0V339.892H332.217L97.3,104.978l7.674-7.674L339.892,332.217V0h10.854V332.217L585.659,97.3l7.675,7.674L358.42,339.892H690.638v10.854H358.42L593.334,585.659l-7.675,7.674L350.746,358.42V690.637Z" transform="translate(0 0)"/>
    </g>
    <rect id="Rectangle_3" data-name="Rectangle 3" width="211.725" height="211.725" rx="2" transform="translate(542.164 497.877) rotate(-45)"/>
  </g>
</svg>
