<svg xmlns="http://www.w3.org/2000/svg" xmlns:xlink="http://www.w3.org/1999/xlink" width="670" height="472" viewBox="0 0 670 472">
  <defs>
    <clipPath id="clip-path">
      <rect id="Rectangle_2" data-name="Rectangle 2" width="670" height="472" transform="translate(0 0)" fill="#fff"/>
    </clipPath>
  </defs>
  <g id="Mask_Group_1" data-name="Mask Group 1" transform="translate(0 0)" opacity="0.04" clip-path="url(#clip-path)">
    <g id="Group_2" data-name="Group 2" transform="translate(-84.691 0.105)">
      <path id="Path_2954" data-name="Path 2954" d="M1,324.068V279.477c5.457-3.512,11.594-5.423,17.694-7.366,16.161-5.148,32.593-9.44,48.525-15.313,7.734-2.851,15.357-5.952,22-10.989a22.768,22.768,0,0,0,9.546-19.815,40.614,40.614,0,0,0-2.792-13.4c-3.359-8.764-7.186-17.346-10.232-26.241a8.431,8.431,0,0,0-7.069-5.776,63.806,63.806,0,0,0-8.25-.8c-12.585-.478-25.2-.673-37.664-2.719C22.21,175.331,11.8,172.624,1,172.807V162.753a20.73,20.73,0,0,1,5.436.159c8.973,1.074,17.671,3.685,26.629,4.813,7.974,1,15.982,1.47,23.846-.752,9.2-2.6,13.142-8.941,11.645-18.345-1.091-6.853-4.276-12.8-8.007-18.49C55.07,121.775,48.436,114.3,42.2,106.522c-5.87-7.333-11.726-14.676-16.028-23.1-4.385-8.588-4.833-17.262-.631-26.044,1.791-3.742,3.623-7.464,5.46-11.184,4.538-9.185,3.953-18.211-.487-27.29-3.2-6.543-7.674-12.17-12.033-17.9H40.343c0,1.73.828,3.225,1.417,4.773,1.735,4.559,3.521,9.1,5.321,13.634,3.98,10.024,3.139,19.479-3.074,28.434a112.077,112.077,0,0,0-7.321,11.9,30.089,30.089,0,0,0-1.819,24.943,61.74,61.74,0,0,0,7.24,13.673c5.639,8.433,12.158,16.189,18.649,23.953,11.1,13.279,20.058,27.705,24.73,44.539a34.266,34.266,0,0,0,1.534,4.087,7.9,7.9,0,0,0,7.206,5.131c9.358.762,16.193-3.233,20.288-12.307,2-4.442,3.609-9.063,5.445-13.583a50.433,50.433,0,0,1,7.764-13.36c.742-.9,1.531-1.759,2.358-2.577,6.65-6.569,13.429-7.258,21.274-2.123,4.3,2.816,7.831,6.509,11.281,10.269,5.711,6.225,11.214,12.647,17.4,18.423,3.731,3.485,7.565,6.85,12.156,9.2,5.5,2.81,9.695,2.146,14.072-2.231a40.441,40.441,0,0,0,5.43-6.83,257.951,257.951,0,0,0,19.741-38.183c.2-.468.334-.964.537-1.431,4.05-9.292,2.852-18.044-2.705-26.348-3.686-5.507-7.426-10.978-11.048-16.527-3.236-4.959-6.054-10.129-7.2-16.041-.7-3.616.064-4.687,3.652-5.077,2.534-.275,5.069-.539,7.595-.878,6.525-.876,11.083-4.452,13.977-10.283a29.58,29.58,0,0,0,2.974-9.782c1.157-10.049,4.231-19.295,10.686-27.276C252.2,6.291,254.85,3.8,257.17,1h15.737c-9.073,7.8-13.152,17.736-12.7,29.618.529,13.98,2.183,27.873,3.255,41.811a28.415,28.415,0,0,0,5.62,14.515c2.392,3.3,4.877,6.538,7.411,9.733a49.606,49.606,0,0,1,11,26.461c.543,5.6.046,11.079-2.477,16.207A9.746,9.746,0,0,1,274.027,145a64.9,64.9,0,0,1-6.6-1.485,135.376,135.376,0,0,0-13.339-3.353c-11.16-1.89-17.976,1.588-22.9,11.759a34.507,34.507,0,0,0-2.134,5.723c-2.277,8.1-.514,15.1,5.543,21a106.686,106.686,0,0,0,12.172,9.941c6.825,4.929,14.006,5.586,21.693,2.327,4.358-1.848,8.737-3.659,13.184-5.276a27,27,0,0,1,13.306-1.577c7.391,1.075,14.085,4.129,20.831,7.049,10.221,4.425,20.217,9.459,31.134,12.04,10.034,2.372,20.342,2.7,30.551,3.736,5.935.6,11.926.769,17.753,2.227a10.25,10.25,0,0,1,7.911,7.636c.543,1.963.99,3.955,1.43,5.944,1.469,6.628,3.008,13.241,6.818,19.016,6.09,9.232,16.58,11.716,26.188,6.168,7.514-4.338,11.609-11.233,14.041-19.3,1.636-5.424,1.949-11.034,2.176-16.64.193-4.773,2.412-7.97,6.933-9.546,1.857-.647,3.7-1.357,5.578-1.916,4.258-1.265,8.563-2.375,12.8-3.691,9.422-2.923,18.6-6.37,26.583-12.42,12.291-9.309,16.611-21.727,12.614-36.677-1.757-6.573-4.624-12.727-7.23-18.974a75.792,75.792,0,0,1-6.166-34.1c.272-4.576.226-9.177.169-13.765a63.676,63.676,0,0,0-6.222-27.258c-.981-2.032-1.948-4.081-2.748-6.187-1.075-2.827-.4-4.193,2.437-5.217a51.518,51.518,0,0,1,8.1-1.8,40.42,40.42,0,0,0,22.559-12.472C536.405,20.2,539.96,11.52,535.634,1H547c3.584,8.969,2.135,17.573-1.931,25.964a187.744,187.744,0,0,1-15.662,27,80.508,80.508,0,0,0-12.43,28.411c-4.061,16.936-2.95,33.057,5.716,48.437,2.283,4.053,4.206,8.32,6.118,12.568,6.009,13.349,6.666,26.587-1.2,39.521a60.7,60.7,0,0,1-14.595,16.094c-7.07,5.573-14.972,9.82-22.678,14.377-7.778,4.6-14.424,10.435-19.176,18.151-7.1,11.532-14.029,23.174-20.942,34.821-3.877,6.531-4.159,13.407-1.222,20.355,4.367,10.333,9.066,20.518,14.275,30.457a43.465,43.465,0,0,0,3.4,5.34c6.717,9.237,17.371,12.247,27.9,7.8,3.685-1.557,7.235-3.434,10.844-5.17a48.807,48.807,0,0,1,35.707-3.225c12.137,3.465,22.322,10.139,31.448,18.654,5.061,4.721,9.573,9.995,14.824,14.526,5.555,4.793,11.794,6.765,19.046,4.976,1.2-.3,2.43-.49,3.622-.817a71.021,71.021,0,0,1,33.1-.782c10.442,2.069,20.633,5.126,30.938,7.729,9.288,2.345,18.292,2.052,27.008-2.347,3.376-1.7,6.894-3.137,10.389-4.591a29.791,29.791,0,0,1,20.305-1.189,101.954,101.954,0,0,1,16.941,6.986c10.317,5.142,20.054,11.262,29.773,17.433,15.58,9.892,26.452,23.919,35.5,39.636,3.675,6.385,6.552,13.17,10.055,19.637a16.114,16.114,0,0,0,5.9,6.591,89.546,89.546,0,0,0,10.351,5.13c0,6.193-.026,12.387.028,18.579.008.94-.179,1.142-1.121,1.122-3.423-.073-6.848-.029-10.273-.029-.876-3.839-2.271-7.519-3.41-11.277-1.986-6.548-6.259-9.947-13.145-9.98-2.7-.013-5.39-.061-8.085-.064-3.2,0-6.415.15-9.613.013-9.429-.4-18.579-2.691-27.825-4.313-9.655-1.694-19.338-2.789-29.123-1.438-6.819.941-13.237,3.442-19.789,5.414-5.333,1.6-10.749,2.746-16.355,2.13-13.825-1.52-25.5-7.719-35.886-16.669-6.226-5.364-10.5-12.241-14.8-19.1a44.913,44.913,0,0,0-30.609-21c-7.032-1.381-13.456-.247-18.963,4.706a60.257,60.257,0,0,1-7.535,5.96c-7.549,4.873-16.118,6.135-24.788,6.934-11.235,1.035-22.535,1.5-33.6,3.965-6.965,1.554-13.927,3.13-20.912,4.591-8.334,1.743-16.534,1.614-24.3-2.393A62.216,62.216,0,0,1,470.53,404.59a30.747,30.747,0,0,1-6.214-13.577,76.276,76.276,0,0,1-1.177-17.187,169.4,169.4,0,0,0-.4-20.308c-1.074-10.906-5.642-19.276-16.26-23.632a106.281,106.281,0,0,0-30.837-7.662,83.965,83.965,0,0,0-17.454.358c-6.5.763-11.723-1.192-15.659-6.544-6.732-9.153-13.671-18.162-19.541-27.914a51.033,51.033,0,0,1-7.264-19.494c-.631-4.626-.9-9.275-1.123-13.932-.387-8.054-1.9-15.814-6.764-22.485a67.012,67.012,0,0,0-42.5-26.991c-14.259-2.8-24.292,2.449-28.207,17.43-.387,1.48-.832,2.945-1.193,4.431q-2.4,9.871-4.767,19.751c-3.917,16.379-11.9,30.053-25.9,39.965A56.611,56.611,0,0,0,231.5,301.328c-1.4,2.043-2.893,4.021-4.366,6.012-4.736,6.4-11.176,9.586-19.044,10.05-2.55.15-5.1-.1-7.642-.111-4.943-.025-9.868-.622-14.828-.2-10.4.877-17.482,6.2-21.515,15.717a65.834,65.834,0,0,0-3.987,14.056c-1.375,7.592-1.9,15.316-3.784,22.836a24.449,24.449,0,0,1-14.4,17.3,167.582,167.582,0,0,1-24.5,8.626c-11.355,3.1-21.113.234-29.405-8.057a145.66,145.66,0,0,1-11.4-13.245C67.248,362.356,55.7,353.955,40.3,351.647a45.229,45.229,0,0,1-24.459-12.162C10.6,334.62,5.743,329.4,1,324.068Zm107.906,59.2a22.394,22.394,0,0,0,4.971-.459,53.412,53.412,0,0,0,21.045-10.245,29.484,29.484,0,0,0,9.709-13.475c2.387-6.386,3.564-13.054,4.574-19.76,1.27-8.431,2.5-16.875,5.671-24.867,4.51-11.37,12.646-18.007,25.01-19.29,5.5-.571,11.057-.274,16.534-1.225,5.131-.891,9.328-3.046,11.25-8.176,1.987-5.3,1.362-10.312-2.342-14.769a47.4,47.4,0,0,0-5.37-5.436c-12.629-10.993-24.291-22.869-33.606-36.88A109.483,109.483,0,0,1,154.9,206.625c-2.183-5.8-1.544-11.108,2.237-16.073,1.675-2.2,3.2-4.52,4.695-6.847a21.123,21.123,0,0,0,3.219-8.059c.931-5.681-.593-10.826-3.373-15.7-3.073-5.386-6.856-10.171-12.231-13.424-6.341-3.839-12.419-1.917-15.59,4.774a23.3,23.3,0,0,0-1.7,5.178c-1.536,7.247-.741,14.522-.144,21.772.542,6.575-.875,12.29-6.156,16.663-1.12.927-2.124,1.993-3.2,2.979a17.738,17.738,0,0,0-5.844,13.621c-.038,5.972.483,11.941.052,17.912-.884,12.256-6.547,21.23-18.023,26.193a110.58,110.58,0,0,1-17.276,5.451c-17.743,4.426-35.438,9.022-52.588,15.45-6.415,2.4-12.788,4.958-18.1,9.489a18.072,18.072,0,0,0-6.688,14.357c-.008,7.044,2.812,13,6.915,18.485,6.827,9.123,15.96,15.054,26.59,18.705a104.066,104.066,0,0,1,45.7,30.72A65.614,65.614,0,0,0,94.236,378.4,23.315,23.315,0,0,0,108.906,383.264Zm664.175,52.663c5.62.024,10.674.276,15.495-1.55,4.48-1.7,6.684-4.937,6.706-9.707.03-6.3-2.524-11.79-5.635-17-9.53-15.976-23.545-26.96-39.884-35.249a59.545,59.545,0,0,0-17.274-5.987c-10.672-1.754-19.427,2-27.029,9.238-2.847,2.71-5.44,5.688-8.573,8.1a13.182,13.182,0,0,1-11.044,2.839,28.527,28.527,0,0,1-7.777-2.814c-4.252-2.24-8.436-4.613-12.722-6.784-7.47-3.784-15.213-6.681-23.765-6.589a15.408,15.408,0,0,0-7.4,1.581c-3.193,1.746-4.015,4.863-2.1,7.958a17.014,17.014,0,0,0,5.346,5.082c3.4,2.245,6.852,4.426,10.3,6.6a37.836,37.836,0,0,1,16.413,20.575,89.949,89.949,0,0,0,3.806,9.765c6.267,13.381,17.321,19.719,31.623,21.031,7.846.72,14.919-2.154,21.867-5.223,8.162-3.6,16.659-4.457,25.435-3.77C755.8,434.712,764.74,435.321,773.082,435.927Zm-263.4-26.554a39.122,39.122,0,0,0,6.977-.51,67.414,67.414,0,0,0,11.4-2.981,210.341,210.341,0,0,1,29.77-8.527,37.119,37.119,0,0,0,8.106-2.564,14.041,14.041,0,0,0,8.67-11.463c.914-6.656-.227-13.1-2.32-19.35-4.816-14.384-13.932-24.843-28.667-29.488-12.174-3.838-22.331.106-29.309,10.783-1.553,2.376-3.029,4.8-4.465,7.254a24.415,24.415,0,0,1-13.852,11.367c-2.833.925-5.624,2.009-8.362,3.187a14.008,14.008,0,0,0-8.314,9.8,22.037,22.037,0,0,0,3.939,19.631C489.85,405.256,498.788,409.375,509.677,409.373ZM262.252,235.028c.035-6.022-.553-10.764-2.909-15.115-2.861-5.284-7.64-6.678-12.909-3.821a23.226,23.226,0,0,0-7.121,6.028c-6.691,8.4-10.736,18.1-13.706,28.3a28.45,28.45,0,0,0-1.242,8.175c.048,6.785,3.454,10.414,10.213,10.777,8.441.454,14.948-3.138,19.834-9.8C260.01,251.944,261.847,243.11,262.252,235.028ZM184.4,209.45c.193,8.913,7.035,18.494,15.434,21.538,4.769,1.728,9.053.939,12.614-2.78,4.857-5.073,7.4-11.3,8.473-18.112,1.819-11.582-10.16-22.427-21.649-19.745C191.014,192.279,184.219,201.006,184.4,209.45Z" transform="translate(-0.973 -0.976)" fill="#fff"/>
      <path id="Path_2955" data-name="Path 2955" d="M74.481,618.083H63.921c-.455-1.869-1.974-3.563-2.868-5.362-1.1-2.212-1.965-4.439-1.677-6.744.695-5.555,5.149-10.053,12.819-13.552,3.45-1.574,7.25-2.907,10.762-4.442,4.329-1.892,5.074-3.754,2.888-6.583a14.39,14.39,0,0,0-1.493-1.633,80.869,80.869,0,0,0-17.5-12.191,48.059,48.059,0,0,0-21.39-5.331,96.753,96.753,0,0,1-10.21-.823,43.714,43.714,0,0,1-16.481-5.816c-4.879-2.873-9.575-5.843-14.4-8.744A9.822,9.822,0,0,0,1,545.183V535.4c3.425,2.236,7.089,4.347,10.8,6.436a69.544,69.544,0,0,0,29.453,8.8A71.239,71.239,0,0,1,63.491,555.9a73.37,73.37,0,0,1,12.44,6.888c4.532,3.043,8.775,6.229,14.173,8.846a43.531,43.531,0,0,0,23.4,3.937,176.217,176.217,0,0,0,33.337-6.368c5.381-1.576,8.623-4.21,10.493-7.4a30.249,30.249,0,0,0,2.973-8.507c1.052-4.284,2.106-8.572,4.947-12.634,3.174-4.538,8.407-7.924,17.3-9.1a71.715,71.715,0,0,1,12.02-.479c5.484.2,10.985.343,16.474.142,6.745-.247,12.447-1.764,16.85-4.66a38.862,38.862,0,0,0,3.893-2.806,68.416,68.416,0,0,1,18.32-10.8c10-4.167,16.8-9.6,20.735-16.173a72.586,72.586,0,0,0,4.712-9.294c1.578-3.77,2.882-7.582,5.214-11.241,3.61-5.664,11.729-8.545,22.5-8.034,1.24.059,2.489.132,3.7.279,16.258,1.965,29.795,6.468,40.455,13.572,4.261,2.84,6.919,6.122,7.967,9.8a34.529,34.529,0,0,1,1.151,7.551c.366,6.373,3.912,12.139,10.248,17.422,5.29,4.411,10.931,8.682,16.556,12.959a25.733,25.733,0,0,0,4.112,2.543,17.109,17.109,0,0,0,7.507,1.814c2.636.04,5.29.063,7.913-.061a147.533,147.533,0,0,1,18.217.085c10.954.839,21.606,2.281,31.443,5.208,5.447,1.621,8.963,4.137,10.8,7.4a17.451,17.451,0,0,1,1.921,5.634c.83,4.682.347,9.374.267,14.057-.129,7.6,5.337,13.521,15.794,18.374a66.224,66.224,0,0,0,36.923,5.581c8.166-.984,16.322-2,24.5-2.943,11.741-1.358,23.747-1.424,35.611-2.187,9.787-.629,18.708-2.337,26.018-6.178.956-.5,2.036-.933,3.072-1.388a30.394,30.394,0,0,1,15.111-2.1,76.968,76.968,0,0,1,17.032,3.481,45.8,45.8,0,0,1,17.619,10.716c5.8,5.345,13.432,9.646,23.151,12.788,9.4,3.038,19.267,5.181,30.383,4.961a107.173,107.173,0,0,0,18.384-2.292,116.946,116.946,0,0,1,29.408-2.161c5.689.344,11.363.746,16.959,1.4a240.7,240.7,0,0,0,36.659,1.992c1.9-.066,3.812.01,5.716.055,5.691.135,9.709,1.571,11.757,4.614a43.7,43.7,0,0,1,3.866,6.875H819.85c-.543-.326-1.043-.679-1.634-.975-4.276-2.142-9.474-3.2-14.972-3.889-9.153-1.14-18.3-2.29-27.475-3.381-11.773-1.4-23.6-2.12-35.537-.583-5.434.7-10.731,1.662-16.064,2.555a76.472,76.472,0,0,1-28.664-.6,164.793,164.793,0,0,1-38.13-13.117c-5.275-2.541-9.836-5.482-14.867-8.159a39.164,39.164,0,0,0-10.1-3.846c-6.425-1.427-12.675-.838-18.806.6-5.611,1.312-11.229,2.609-17.12,3.494-10.31,1.55-20.846,1.736-31.425,1.555a191.224,191.224,0,0,0-45.192,4.288c-5.167,1.157-10.418,2.2-15.55,3.4-5.419,1.269-9.93.651-14-1.632-8.1-4.548-16.323-9.025-24.407-13.581-6.866-3.868-10.147-8.572-10.343-14a78.185,78.185,0,0,0-.884-10.745c-1.392-7.942-9.159-13.561-22.347-15.745-8.107-1.343-16.1-1.316-23.324,1.62a25.146,25.146,0,0,0-7.99,5.307c-2.66,2.494-4.677,5.17-7.144,7.717a26.209,26.209,0,0,1-7.32,5.764,15.607,15.607,0,0,1-15.873-.729,10.188,10.188,0,0,1-3.127-3.343,14.1,14.1,0,0,1-1.694-8.338,105.789,105.789,0,0,1,1.894-10.7,16.249,16.249,0,0,0-4.461-14.852c-2.494-2.687-5.422-5.223-8.31-7.775-4.794-4.236-7.845-8.811-9.071-13.78-.876-3.552-1.211-7.15-2.631-10.654-3.745-9.244-13.814-15.227-30.359-17.579-10.454-1.487-18.613.634-23.9,5.851a27.35,27.35,0,0,0-2.834,3.307,78.711,78.711,0,0,0-6.616,11.268c-4.033,7.936-10.57,15.069-20.8,21.134a55.538,55.538,0,0,0-13.866,11.555,48.472,48.472,0,0,1-6.189,6.192c-4.431,3.589-10.457,5.625-18.276,5.993a64.8,64.8,0,0,1-7.466-.073c-6.032-.413-12.06-.86-18.157-.79-8.943.1-15.126,2.648-17.915,7.367-1.845,3.12-1.887,6.329-1.469,9.56.443,3.422,1.906,6.763,2.6,10.165.751,3.693-.976,7.026-4.79,10.048-4.753,3.766-11.232,6.285-18.88,7.882a126.1,126.1,0,0,1-28.148,2.9,24.557,24.557,0,0,0-4.575.264c-3.1.533-3.678,1.7-1.5,3.015a12.954,12.954,0,0,0,3.292,1.416c7.624,2.089,12.128,5.605,15.176,9.889,3.532,4.963,7,9.944,11.107,14.775h-8.8c.086-.372-.406-.6-.735-.854a56.891,56.891,0,0,0-18.314-9.344c-7.629-2.352-15.54-4.4-23.385-6.509a57.136,57.136,0,0,0-7.195-1.493c-12.708-1.728-22.011,2.833-20.441,10.035A30.055,30.055,0,0,0,74.481,618.083Z" transform="translate(-0.973 -145.903)" fill="#fff"/>
      <path id="Path_2956" data-name="Path 2956" d="M1343.587,429v14.313c-.317-.6-.64-1.178-.948-1.79-3.933-7.821-6.924-16.917-9.779-26.157-3.3-10.679-7.922-18.206-14.1-22.358a130.021,130.021,0,0,1-27.369-25.424c-3.328-4.025-6.555-8.348-10.033-11.933-3.983-4.106-7.9-4.395-11.815.254-1.138,1.351-2.306,2.613-3.448,3.955a34.079,34.079,0,0,1-6.535,6.233c-4.946,3.343-9.958,2.516-14.965.7-7.033-2.544-13.764-7-20.451-11.718-9.355-6.593-18.756-12.964-27.53-22.152a191.355,191.355,0,0,0-25.689-22.619,33.422,33.422,0,0,1-9.314-9.53c-4.833-7.71-7.783-22.828-1.207-35.835a51.038,51.038,0,0,1,3.652-6.127c3.118-4.484,6.489-8.252,9.766-12.285a131.106,131.106,0,0,0,12.276-17.131c4.147-7.145,6.346-15.841,6.282-26.512-.029-4.847.013-9.7-.009-14.542a112.025,112.025,0,0,0-1.32-16.839c-1.612-10.289-4.449-19.459-7.3-28.619-2.022-6.5-4.2-12.84-5.618-19.943a45.315,45.315,0,0,1-1.006-11.722A32.436,32.436,0,0,1,1181.4,96.6c1.709-2.966,3.5-5.777,5.3-8.533,4.333-6.612,6.941-15.009,7.468-25.54.637-12.71,1.234-25.407,2.919-37.85a48.932,48.932,0,0,0-1.83-22.827A6.512,6.512,0,0,1,1195.1,1h12.721c1.513,7.979,2.65,16.153,3.5,24.468a98.593,98.593,0,0,1,.655,17.628c-.388,5.087-1.51,9.723-2.338,14.543-2.72,15.83-6.686,30.366-12.426,43.1a104.512,104.512,0,0,0-4.038,10.136,32.388,32.388,0,0,0-.131,20.082,44.8,44.8,0,0,0,5.764,12.118c2.954,4.418,6.29,7.683,9.54,11.213a57.229,57.229,0,0,1,10.883,15.845c3.809,8.479,4.247,16.179,1.419,25.929a114.161,114.161,0,0,1-4.158,11.109c-1.88,4.672-3.779,9.374-4.347,15.316-1.145,11.95.966,18.317,6.147,22.051a45.342,45.342,0,0,0,5.583,3.386c6.322,3.3,12.673,6.36,18.745,11.215,8.546,6.833,13.531,19.174,15.968,35.651a35.54,35.54,0,0,1,.423,6.843c-.155,3.379-.988,5.369-2.7,6.367a9.615,9.615,0,0,1-4.592,1.159,52.831,52.831,0,0,0-24.572,7.159,21.843,21.843,0,0,0-7.047,5.727c-1.753,2.294-2.227,5.324-1.473,9.1a26.317,26.317,0,0,0,1.629,5.129,41.115,41.115,0,0,0,7.874,12.273c7.126,7.675,14.671,12.675,23.012,12.087,4.934-.348,9.056-4.016,12.289-11.166,1.888-4.174,2.93-9.2,4.148-14.061,1.469-5.864,3.238-7.109,6.435-4.623a24.363,24.363,0,0,1,5.955,7.556c2.908,5.278,5.661,10.869,8.63,16.015,8.144,14.108,17.474,24.1,28.4,28.324,3.632,1.406,7.32,2.235,10.945,3.749,3.987,1.666,6.7,6.011,8.187,13.155.7,3.365,1.387,6.738,2.09,10.1C1339.627,416.488,1341.148,423.2,1343.587,429Zm-150.458-167.04c-4.919.94-10.234,5.349-14.188,14.645a23.677,23.677,0,0,0-.273,16.758,29.671,29.671,0,0,0,3.223,6.592c4.7,7.1,9.91,12.4,15.646,15.82a7.986,7.986,0,0,0,5.912,1.285c2.816-.641,3.878-2.828,3.887-8.16a89.766,89.766,0,0,0-.987-12.522c-1.206-8.7-2.248-17.5-4.287-25.71C1200.542,264.552,1197.936,261.791,1193.129,261.958Zm37.169,41.723a38.1,38.1,0,0,0,9.937-2.389,18.179,18.179,0,0,0,6.641-3.839c2.731-2.642,3.628-6.8,2.655-12.309a25.028,25.028,0,0,0-4.24-10.48c-5.509-7.667-11.747-10.749-18.532-9.953a8.547,8.547,0,0,0-6.281,4.021c-3.014,4.388-3.62,10.509-3.373,17.164.35,9.383,3.2,15.368,8.079,17.1A12.741,12.741,0,0,0,1230.3,303.681Z" transform="translate(-504.22 -0.976)" fill="#fff"/>
      <path id="Path_2957" data-name="Path 2957" d="M658.365,1h34.982a2.277,2.277,0,0,0,.119.585c1.794,3.616,1.192,7.089-.792,10.37a22.269,22.269,0,0,1-13.6,10.28c-1.883.516-3.832.782-5.729,1.252-2.194.544-2.8,1.679-2,3.819.539,1.447,1.246,2.833,1.894,4.238,2.915,6.326,3.545,13.031,3.078,19.854a46.25,46.25,0,0,0,3.813,22.425,77.924,77.924,0,0,1,3.38,8.652c1.706,5.492,1.525,10.79-1.83,15.678a23.593,23.593,0,0,1-6.619,6.271,48.413,48.413,0,0,1-11.426,5.205c-3.9,1.313-7.939,2.172-11.816,3.579a5.8,5.8,0,0,0-4.2,6.024,33.333,33.333,0,0,1-.522,5.962c-.839,4.74-2.689,8.969-6.437,12.175-5.717,4.889-12.715,3.7-16.48-2.8a21.758,21.758,0,0,1-1.818-4.132,79.4,79.4,0,0,1-2.046-8.182,6.321,6.321,0,0,0-5.553-5.38c-5.072-.874-10.2-1.2-15.319-1.573a61.743,61.743,0,0,1-21.593-5.333c-3.924-1.8-7.92-3.453-11.9-5.134a20.578,20.578,0,0,0-17.748.306,43,43,0,0,1-6.5,2.5,8.611,8.611,0,0,1-6.859-.721,37.38,37.38,0,0,1-10.349-8.286,8.914,8.914,0,0,1-2.341-6.281,16.1,16.1,0,0,1,4.439-10.6,8.49,8.49,0,0,1,6.677-2.767,25.885,25.885,0,0,1,5.9.939c2.484.645,4.911,1.506,7.446,1.959,4.235.756,6.851-.836,8.089-4.95a13.11,13.11,0,0,0,.444-1.9,26.017,26.017,0,0,0-2.224-14.9c-1.627-3.523-4.13-6.439-6.5-9.443-2.53-3.2-4.39-6.722-4.649-10.849-.447-7.121-1.31-14.207-1.712-21.327a20,20,0,0,1,4.093-14A41.713,41.713,0,0,1,547.548,1h7.828a3.468,3.468,0,0,1-1.139.894c-5.273,3.722-8.038,8.714-7.927,15.257a34.577,34.577,0,0,0,1.353,8.913c1.406,4.951,3.962,9.369,6.433,13.821a68.924,68.924,0,0,1,7.8,21.37c1.062,5.9,1.605,11.869,2.548,17.782.588,3.689,1.512,7.276,3.718,10.38,4.016,5.652,9.788,8.123,16.436,8.975,5.312.681,10.661.483,15.993.7a41.252,41.252,0,0,0,17.357-2.84,31.3,31.3,0,0,1,25.082.13,45.9,45.9,0,0,0,9.461,2.874c5.136.992,10.215.957,15.144-1.057a13.534,13.534,0,0,0,8.856-13.339,30.8,30.8,0,0,0-1.618-8.5c-1.035-3.434-2.034-6.874-2.778-10.387-1.019-4.819-.953-9.724-1.217-14.6-.346-6.356-2.564-11.8-7.37-16.1-2.977-2.668-6.117-5.132-9.251-7.608a39.086,39.086,0,0,0-14.366-7.1c-2.008-.535-4.023-1.04-6.028-1.585-10.128-2.752-19.074-7.924-27.758-13.616A34.333,34.333,0,0,1,600.388,1h6.85c.076.462.491.627.8.871A67.083,67.083,0,0,0,620.665,9.7c9.666,4.716,19.814,5.451,30.266,3.827a6.125,6.125,0,0,0,5.3-4.893C656.912,6.08,657.478,3.495,658.365,1Z" transform="translate(-236.103 -0.976)" fill="#fff"/>
      <path id="Path_2958" data-name="Path 2958" d="M1538.751,251.3V262.31c-3.115.619-6.223,1.282-9.347,1.847a29.392,29.392,0,0,0-10.821,4.334c-1.128.728-2.3,1.4-3.489,2.02-5.6,2.908-10.85,2.07-15.6-1.814-4.784-3.91-7-10.606-1.686-16.543.842-.941,1.689-1.886,2.445-2.9,3.821-5.1,3.815-10.691,1.727-16.37a5.439,5.439,0,0,0-6.265-3.59c-2.037.338-3.38,1.72-4.575,3.249-1.1,1.412-2.088,2.919-3.213,4.312a10.494,10.494,0,0,1-10.039,4.094,18.438,18.438,0,0,1-9.817-4.6c-3.352-2.9-5.728-6.571-7.988-10.3a41.694,41.694,0,0,0-16.358-15.559,43.283,43.283,0,0,1-8.4-5.665c-3.341-2.943-4.773-6.531-3.719-10.948.557-2.338,1.207-4.653,1.78-6.987a24.159,24.159,0,0,0,.524-10.535c-.93-4.729-3.485-8.573-6.679-12.029-2.6-2.813-5.337-5.5-7.969-8.281a18.018,18.018,0,0,1-3.681-5.441,6.522,6.522,0,0,1,2.159-8.173,17.994,17.994,0,0,1,4.129-2.356c1.012-.432,2.009-.907,3.041-1.284,5.642-2.06,9.2-6.1,11.253-11.64a35.992,35.992,0,0,1,3.76-7.668,13.665,13.665,0,0,1,11.441-6.463c6.577-.2,12.179,2.182,17.063,6.456,3.046,2.666,5.592,5.813,8.354,8.752a18.8,18.8,0,0,0,3.449,3.094,3.178,3.178,0,0,0,4.723-.822,12.1,12.1,0,0,0,1.9-3.676,19.712,19.712,0,0,0,.188-10.385,12.971,12.971,0,0,1-.446-3.75,2.141,2.141,0,0,1,2.759-2.125,6.754,6.754,0,0,1,2.381.913,23.269,23.269,0,0,1,4.331,3.374,74.606,74.606,0,0,0,10.426,8.665,70.133,70.133,0,0,1,17.1,15.551c4.286,5.5,9.748,9.8,15.155,14.133v14.433a26.723,26.723,0,0,0-5.933-6.762c-4.182-3.152-8.753-5.012-14.112-4.252a37.013,37.013,0,0,0-6.349,1.768c-5.551,1.831-11.2,2.894-17.075,2.178a71.607,71.607,0,0,1-18.114-4.912c-5.406-2.179-8.268-6.172-8.694-12.031a36.779,36.779,0,0,0-2.145-11.122,16.735,16.735,0,0,0-6.651-8.372c-5.166-3.212-10.776-1.613-13.493,3.814a15.386,15.386,0,0,0-1.15,3.087c-1.263,4.946-1.823,10.017-2.683,15.034-.574,3.346-1.085,6.716-.413,10.083,1.538,7.72.7,15.425.014,23.134-.338,3.822-1.359,7.536-1.914,11.326-.756,5.16.489,9.622,4.506,13.134a26.593,26.593,0,0,0,2.449,2.022,82.552,82.552,0,0,1,18.078,16.689,20.139,20.139,0,0,0,3.057,2.987c3.749,3.055,7.562,3.135,11.372.19,1.482-1.146,2.885-2.395,4.357-3.555a17.265,17.265,0,0,1,8.471-3.825c5.081-.679,9.666.828,14.07,3.145,6.017,3.164,9.521,7.982,9.923,14.912a44.284,44.284,0,0,0,.9,7.149,11.641,11.641,0,0,0,9.4,9.479,16.3,16.3,0,0,0,8.459-.323C1536.32,252.238,1537.528,251.743,1538.751,251.3Z" transform="translate(-699.384 -83.705)" fill="#fff"/>
      <path id="Path_2959" data-name="Path 2959" d="M698.2,643.389H684.835a8.925,8.925,0,0,0-14.322,0H658.1c.192-1.473,1.136-2.868,1.694-4.3,1.695-4.356,2.819-8.706-.319-13.02-2.638-3.626-7.215-6.59-12.405-9.331-4.983-2.631-10.336-5.075-14.983-7.88-6.267-3.784-9.865-8.036-9.41-13.086a28.03,28.03,0,0,0-.009-4.769,12.287,12.287,0,0,0-4.505-9.268c-6.473-5.4-19.547-5.944-27.491-1.126a30.326,30.326,0,0,0-8.207,7.693c-2.174,2.713-3.921,5.528-6.972,8.033C567.738,602.7,551.26,606.57,536,598.658c-6.239-3.236-8.792-7.294-9.672-11.7-1-4.987.269-9.931,1.157-14.881a31.211,31.211,0,0,0,.517-10.986c-.941-5.341-5.751-9.88-11.616-14.151-6.98-5.083-10.391-10.759-11.428-16.887a56.83,56.83,0,0,0-1.534-6.8c-1.28-4.282-4.139-8.21-10.547-11.235-9.13-4.311-24-5.283-32.073,2.372a38.75,38.75,0,0,0-8.143,11.2c-3.81,7.665-10.413,14.577-19.711,20.872-6.8,4.6-11.558,9.736-14.154,15.375-1.57,3.411-3.143,6.821-4.75,10.227-1.671,3.54-3.517,7.044-8.459,9.85-3.906,2.217-8.814,3.733-13.85,5.139-7.371,2.057-13.855,4.615-18.592,8.229-7.185,5.48-14.684,10.857-21.08,16.6-3.885,3.486-9.138,6.219-16.017,8.171-4.865,1.381-9.875,2.641-14.383,4.34-7.364,2.777-11.19,6.438-11.15,11.174a17.25,17.25,0,0,0,2.431,7.82h-8.593c-4.318-4.906-8.285-9.887-12.087-14.9-3.269-4.31-8.013-7.954-16.434-10.053a15.188,15.188,0,0,1-3.938-1.569c-1.606-.933-1.307-1.6.93-2.047a28.7,28.7,0,0,1,6.095-.479,128.035,128.035,0,0,0,16.82-.809c10.278-1.175,20.12-2.85,28.12-6.563,8.622-4,12.569-8.916,10.76-14.909-.778-2.578-1.624-5.151-2.284-7.736-1-3.925-.931-7.817,2.061-11.558,2.644-3.305,7.361-5.319,14.247-6.024,5.654-.579,11.253-.065,16.834.206,5,.243,9.962.546,14.986.392,7.281-.224,13.3-1.734,18.067-4.586a38.021,38.021,0,0,0,8.572-7.319A68.8,68.8,0,0,1,423.712,542.8c8.429-4.783,14.888-10.151,18.666-16.33q3.745-6.125,7.6-12.233a28.461,28.461,0,0,1,6.546-7.449c5.094-4.019,12.788-5.825,21.947-4.872,14.57,1.516,24.958,5.851,31.177,12.754,3.7,4.108,4.385,8.57,5.227,12.991,1.1,5.764,4.128,11.186,10.218,16.112,2.128,1.721,4.147,3.478,6.268,5.2,7.136,5.8,9.61,12.048,7.582,18.843-1.323,4.429-2.311,8.9-1.577,13.4a10.807,10.807,0,0,0,4.709,7.6c4.661,3.321,12.457,3.8,18.523,1.164a22.09,22.09,0,0,0,5.1-3.053,54.3,54.3,0,0,0,5.536-5.133,54.773,54.773,0,0,1,8.045-7.489c6.687-4.8,15.727-6.534,26.913-5.337,14.883,1.593,24.532,6.9,27.006,14.767,1.373,4.366.966,8.784,1.459,13.176.468,4.162,2.951,7.894,8.067,11.154,5.958,3.8,13.351,6.871,19.885,10.379,3.568,1.915,7.079,3.863,10.97,5.617a21.823,21.823,0,0,0,13.307,1.315c3.583-.674,7.185-1.326,10.711-2.073,14.111-2.987,28.491-5.4,43.916-5.777,7.082-.173,14.159-.035,21.239-.068a182.1,182.1,0,0,0,36.4-3.373c3.829-.8,7.646-1.622,11.536-2.339a40.973,40.973,0,0,1,9.822-.737,39.794,39.794,0,0,1,15.324,3.908c4.693,2.26,9.047,4.7,13.731,6.969a183.169,183.169,0,0,0,44.292,14.8,94.429,94.429,0,0,0,26.457,1.581c5.832-.481,11.4-1.471,17.034-2.347a138.035,138.035,0,0,1,28.963-1.656c5.543.305,11.048.7,16.486,1.323,10.48,1.194,20.97,2.366,31.409,3.646,5.623.69,10.869,1.846,14.824,4.154h-25.3a59.419,59.419,0,0,0-6.54-1.087,256.148,256.148,0,0,0-32.421-3.234c-14-.332-26.869,2.08-39.808,4.321H901.571a188.005,188.005,0,0,1-18.841-4.686c-10.366-3.194-20.213-6.783-30.144-10.309-6.4-2.273-12.68-4.639-19.418-6.658a62.18,62.18,0,0,0-23.124-2.371q-5.782.464-11.44,1.2a198.943,198.943,0,0,1-38.248,1.762c-7.268-.458-14.578-.666-21.9-.471-11.271.3-21.781,1.841-30.958,5.332-5.673,2.159-9.244,4.958-10.027,8.661C696.933,638.4,697.766,640.881,698.2,643.389Z" transform="translate(-204.834 -171.209)" fill="#fff"/>
      <path id="Path_2960" data-name="Path 2960" d="M448.152,697.758H436.165c-1.042-3.224-3.525-4.866-6.541-5.866a82.963,82.963,0,0,0-8.551-1.988,29.516,29.516,0,0,0-6-1.022c-2.09-.018-2.9.606-3.221,2.683a18.433,18.433,0,0,0,.1,6.193H383.08c-1.173-5.629,1.148-10.134,6.449-12.366a24.575,24.575,0,0,1,11.534-1.462,40.344,40.344,0,0,0,5.374.163,2.83,2.83,0,0,0,2.93-2.294,13.3,13.3,0,0,0,.388-1.79c.3-1.931.515-3.879.892-5.795,1.069-5.428,4.545-9.056,9.031-11.923,3.7-2.363,7.838-3.81,11.745-5.738,7.484-3.694,9.974-8.2,9.043-16.46-.415-3.683-1.047-7.341-1.508-11.019-.912-7.282-.191-14.318,3.311-20.909a59.33,59.33,0,0,1,4.439-7.024,46.315,46.315,0,0,0,8.3-17.421,33.315,33.315,0,0,1,1.222-3.842,13.468,13.468,0,0,1,2.392-4.375c2.168-2.547,4.857-2.472,6.89.173a10.541,10.541,0,0,1,1.969,4.949q.566,3.74.89,7.516a24.677,24.677,0,0,0,3.225,10.546,70.013,70.013,0,0,0,4.837,7.056,26.257,26.257,0,0,1,5.349,17.522c-.105,2.732-.4,5.446-.718,8.16-.609,5.218-1.468,10.418-1.155,15.706a14.956,14.956,0,0,0,1.663,6.336,30.92,30.92,0,0,0,13.776,13.095,11.433,11.433,0,0,0,9.276.325,48.755,48.755,0,0,0,7.354-3.588,68.378,68.378,0,0,1,8.322-4.385,7.1,7.1,0,0,1,6.672.548,19.414,19.414,0,0,1,2.035,1.352c5.055,4.06,10.029,8.22,14.667,12.753,3.31,3.235,5.708,7.035,6.217,11.764a32.616,32.616,0,0,1-1.442,12.427H543.8c.463-1.727,1.014-3.435,1.372-5.183,1.368-6.673-.312-12.408-5.382-17.075a39.212,39.212,0,0,0-7.911-5.694c-6.874-3.718-13.328-2.967-19.173,2.223-5.294,4.7-5.618,9.651-1,15a88.23,88.23,0,0,0,8.565,8.174,13.941,13.941,0,0,1,2.735,2.55H496.833a62.488,62.488,0,0,1-1.066-11.163,18.081,18.081,0,0,0-4.976-11.663,71.144,71.144,0,0,0-5.727-5.846,82.9,82.9,0,0,0-14.158-10.8,10.04,10.04,0,0,0-11.188.251,45.316,45.316,0,0,0-11.169,9.777c-4.592,5.752-6.357,12-3.329,19.14A35.188,35.188,0,0,1,448.152,697.758Zm28.585-73.875c-.089-.983-.141-2.454-.368-3.9-1.129-7.189-5.607-12.068-11.356-15.922-4.06-2.723-7.754-2.318-11.5.979a21.015,21.015,0,0,0-7.5,16.235,28.848,28.848,0,0,0,6.627,18.252,22.339,22.339,0,0,0,9.11,7.372,6.731,6.731,0,0,0,7.749-1.6,16.729,16.729,0,0,0,3.18-4.456A40.4,40.4,0,0,0,476.737,623.884Z" transform="translate(-175.195 -225.579)" fill="#fff"/>
      <path id="Path_2961" data-name="Path 2961" d="M1372.05,1h21.283a3.682,3.682,0,0,0,.481,1.622c1.463,3.932,2.533,8,4.144,11.882a9.952,9.952,0,0,0,6.219,5.828,36.733,36.733,0,0,0,4.959,1.306,61.62,61.62,0,0,0,9.465,1.029,18.114,18.114,0,0,0,11.88-3.715,15.774,15.774,0,0,1,11.107-3.319,29.8,29.8,0,0,1,9.876,2.608,35.754,35.754,0,0,1,12.26,9.906,89.238,89.238,0,0,0,12.4,12.449,131.089,131.089,0,0,1,11.524,10.571,98.585,98.585,0,0,0,11.361,10.013v8.562a1.081,1.081,0,0,1-.335-.122c-5.166-4.307-10.474-8.473-14.638-13.828a65.591,65.591,0,0,0-16.146-14.8,67.383,67.383,0,0,1-9.078-7.23c-1.461-1.36-2.946-2.7-4.47-3.987a9.822,9.822,0,0,0-4.042-2.208c-2.649-.632-3.927.37-3.89,3.066a10.8,10.8,0,0,0,.166,1.577c.3,1.809.713,3.605.9,5.425a13.987,13.987,0,0,1-2.5,9.615c-1.333,1.919-2.547,2.082-4.446.762a20.84,20.84,0,0,1-3.143-2.893c-2.469-2.6-4.746-5.381-7.355-7.852a25.018,25.018,0,0,0-17.954-7.38,14.214,14.214,0,0,0-12.752,7.265,44.071,44.071,0,0,0-3.47,7.409,18.457,18.457,0,0,1-11.314,11.267,26.212,26.212,0,0,0-6.452,3.183,7.211,7.211,0,0,0-2.663,9.067,13.461,13.461,0,0,0,1.633,3,45.69,45.69,0,0,0,5.01,5.679,87.72,87.72,0,0,1,7.238,7.787c4.544,5.84,5.961,12.286,3.939,19.449-.543,1.922-1.021,3.861-1.538,5.79-1.49,5.561-.069,10.108,4.606,13.608a53.428,53.428,0,0,0,6.958,4.535,41.621,41.621,0,0,1,16.549,15.533,46.071,46.071,0,0,0,7.219,9.68,19.254,19.254,0,0,0,9.747,5.3c4.974.975,9.095-.374,12.217-4.49a51.049,51.049,0,0,1,3.777-4.956c3.208-3.3,7.456-2.681,9.115,1.615,2.116,5.479,1.915,10.872-1.878,15.728-.953,1.22-2.018,2.352-2.975,3.569a10.544,10.544,0,0,0-2.394,7.865c.708,6.547,6.835,11.9,13.76,12.117a16.587,16.587,0,0,0,10.253-3.441c6.115-4.338,13.345-4.946,20.343-6.368v9.541a40.375,40.375,0,0,0-10.684,2.978c-1.868.814-3.717,1.676-5.6,2.444a24.67,24.67,0,0,1-16.042,1.236,34.666,34.666,0,0,1-11.1-5.249,37.46,37.46,0,0,1-10.723-12.217c-1.845-3.176-3.748-6.315-6.559-8.776a51.376,51.376,0,0,0-6.962-4.966,32.252,32.252,0,0,1-11.5-11.925c-1.327-2.386-2.742-4.724-4.087-7.1a30.811,30.811,0,0,0-14.16-13.2q-5.162-2.383-10.278-4.865a28.944,28.944,0,0,1-6.694-4.242c-3.1-2.742-4.159-6.044-2.737-10.014.357-1,.761-1.978,1.176-2.952.816-1.912,1.726-3.786,2.472-5.724a16.167,16.167,0,0,0-1.935-16.122,57.456,57.456,0,0,0-10.112-10.234,64.674,64.674,0,0,1-7.853-7.338c-3.738-4.406-4.276-8.777-1.633-13.913a25.18,25.18,0,0,1,7.161-8.4,78.551,78.551,0,0,1,8.22-5.06,17.081,17.081,0,0,0,8.19-11.916,8.719,8.719,0,0,0-2.037-7.871c-1.138-1.278-2.314-2.523-3.5-3.763A39.024,39.024,0,0,1,1372.05,1Z" transform="translate(-659.647 -0.976)" fill="#fff"/>
      <path id="Path_2962" data-name="Path 2962" d="M1616.707,206.927v82.2c-1.82.567-3.546,1.4-5.429,1.8-7.882,1.7-14.292-2.442-15.9-10.309a47.862,47.862,0,0,1-.7-5.943c-.345-4.472-1.505-8.6-4.968-11.742a26.629,26.629,0,0,0-13.791-6.645,18.017,18.017,0,0,0-15.509,4.56c-1.194,1.047-2.412,2.077-3.694,3.013-3.408,2.491-6.381,2.445-9.759-.072a33.485,33.485,0,0,1-5.64-5.746,66.581,66.581,0,0,0-13.339-12.325c-1.536-1.071-3.009-2.237-4.454-3.43-4.455-3.678-6.183-8.32-5.01-14.046a109.278,109.278,0,0,0,2.214-15.351c.369-6.107.831-12.207-.4-18.278a19.769,19.769,0,0,1-.13-6.816c.615-4.192,1.337-8.369,2.007-12.553a32.438,32.438,0,0,1,2.03-8.034c2.789-6.353,9.054-7.846,14.4-3.448a18.646,18.646,0,0,1,6.171,10.164,61.953,61.953,0,0,1,1.375,9.182,12.606,12.606,0,0,0,8,10.951c.744.329,1.493.652,2.253.945a82.007,82.007,0,0,0,7.908,2.549,45.042,45.042,0,0,0,15.947,1.8,50.646,50.646,0,0,0,12.8-3.1c5.751-2.091,10.961-.976,15.919,2.274A25.948,25.948,0,0,1,1616.707,206.927Zm-64.642-3.7a19.026,19.026,0,0,0-9.461,2.106c-8.1,4.129-13.374,10.391-15.17,19.512-1.273,6.465.165,11.815,5.207,16.189,2.835,2.46,5.78,4.778,8.661,7.176,5.191,4.322,10.816,5.553,17.329,3.331a30.638,30.638,0,0,1,14.486-1.359,74.428,74.428,0,0,1,10.594,2.424c4.212,1.267,8.395,2.652,12.81,3.106,5.133.527,9.07-1.248,11.722-5.777a69.532,69.532,0,0,0,4.531-9.476c3.64-9.14,3.324-17.993-1.94-26.479a16.755,16.755,0,0,0-11.813-8.107,49.817,49.817,0,0,0-11.949-.288c-7.877.536-15.715.545-23.5-1.044A53.717,53.717,0,0,0,1552.065,203.222Z" transform="translate(-777.341 -122.016)" fill="#fff"/>
      <path id="Path_2963" data-name="Path 2963" d="M1317.469,1h7.828c1.7,15.4,5.246,28.9,11.119,40.03.985,1.866,1.911,3.861,2.789,5.918a26.6,26.6,0,0,1,1.69,13.45c-1.013,9.22-3.4,16.719-7.618,21.793-1.761,2.118-3.592,4.017-5.381,6.05a48.517,48.517,0,0,0-9.486,16.978c-4.09,12.176-3.583,23.162,1.568,33.724a109.288,109.288,0,0,0,5.484,9.7,137.362,137.362,0,0,1,9.313,16.595c.822,1.838,1.6,3.757,2.337,5.728,3.726,10,3.891,20.534,1.328,31.575-1.192,5.14-2.579,10.133-3.386,15.592-1.191,8.059-.028,14.642,3.3,19.914a34.274,34.274,0,0,0,5.67,6.9c3.6,3.335,7.2,6.656,10.822,9.885,5.832,5.2,10.428,13.006,13.695,23.657,1.427,4.654,2.854,9.311,4.221,14.032,2.743,9.474,6.222,17.738,11.148,23.2,6.612,7.337,11.648,17.292,15.256,30.264a61.142,61.142,0,0,0,10.786,22.046c6.747,8.438,14.014,12.489,22.086,9.278,3.339-1.328,6.394-4.174,9.483-6.829,3.587-3.084,7.294-5.416,11.225-6.224v70.49a56.149,56.149,0,0,1-3.081-9.76c-1.669-6.382-2.707-13.26-4.194-19.788-1.455-6.382-3.858-10.512-7.381-12.292a27.794,27.794,0,0,0-6.116-2.287c-13.2-3.118-24.5-13.914-34.2-31.2-3.316-5.909-6.208-12.662-9.74-18.143-1.822-2.827-3.782-5.2-6.095-6.26-2.534-1.155-4.071.151-5.271,4.544-.567,2.077-1.041,4.249-1.545,6.388-3.277,13.916-9.294,21.226-17.234,20.369-8.605-.928-16.361-6.718-23.375-16.228a36.667,36.667,0,0,1-5.694-11.168c-1.622-5.227-1.177-8.453,1.574-11.456a25.883,25.883,0,0,1,6.573-5.036,51.938,51.938,0,0,1,24.584-7.1,8.33,8.33,0,0,0,4.225-1.121c1.808-1.092,2.654-3.29,2.782-6.9a52.469,52.469,0,0,0-.808-10.393c-2.807-17.195-8.554-28.935-17.377-35.351-6.157-4.478-12.537-7.413-18.831-10.947a21.6,21.6,0,0,1-6.123-4.641c-2.6-2.967-3.888-7.4-4.037-13.145-.2-7.529,1.639-13.571,3.841-19.334,1.495-3.912,3.141-7.61,4.472-11.752a45.143,45.143,0,0,0,2.257-11.548,38.255,38.255,0,0,0-3.994-19.444A58.446,58.446,0,0,0,1318,156.5a107.29,107.29,0,0,1-8.672-10.106,46.7,46.7,0,0,1-6.815-13.934,30.8,30.8,0,0,1,.21-19.071c.905-2.707,1.917-5.259,2.969-7.753,2.618-6.209,5.177-12.491,7.314-19.379,3.408-10.991,5.432-23.085,7.64-35.032a79.868,79.868,0,0,0,.648-20.882C1320.5,20.33,1319.183,10.569,1317.469,1Zm38.679,356.23a7.8,7.8,0,0,0,6.46-2.978c2.344-2.712,3.6-6.647,3.55-12.022-.058-6.213-2.137-11.733-5.7-14.087-5.548-3.666-11.047-2.831-16.237,2.289-4.324,4.267-4.646,11.5-1.022,17.733.182.313.37.614.565.9C1347.425,354.411,1351.6,356.879,1356.148,357.23Z" transform="translate(-613.383 -0.976)" fill="#fff"/>
      <path id="Path_2964" data-name="Path 2964" d="M532.724,666.366h-4.4c.305-1.392.631-2.78.912-4.176,1.635-8.11-.1-15.169-6.347-20.926-4.019-3.7-8.168-7.251-12.335-10.78a26.652,26.652,0,0,0-4.075-2.906,7.71,7.71,0,0,0-6.484-.635,35.448,35.448,0,0,0-6.258,3.034,75.715,75.715,0,0,1-9.766,5.041,11.114,11.114,0,0,1-9.344-.4,33.629,33.629,0,0,1-9.067-6.964,19.563,19.563,0,0,1-5.984-15.459c.348-5.948,1.468-11.808,1.846-17.749.364-5.724.1-11.339-2.746-16.527a50.884,50.884,0,0,0-3.731-5.589c-2.715-3.694-5.281-7.473-6.257-12.059-.646-3.033-.724-6.142-1.082-9.214a16.861,16.861,0,0,0-1.627-5.983c-2.141-4.084-6.17-4.37-8.853-.641a17.281,17.281,0,0,0-2.677,6.26A52.059,52.059,0,0,1,425.326,570a38.756,38.756,0,0,0-6.1,11.237,39.485,39.485,0,0,0-1.135,17.781c.523,3.669,1.192,7.317,1.512,11.016.426,4.929-.956,9.09-4.98,12.2a33.4,33.4,0,0,1-7.38,4.035,60.452,60.452,0,0,0-8.727,4.392c-4.862,3.1-8.287,7.183-9.1,13.1-.261,1.9-.5,3.8-.876,5.676-.444,2.21-1.429,2.956-3.664,2.946-1.058,0-2.117-.073-3.174-.141a36.824,36.824,0,0,0-9.986.413c-6.7,1.4-10.133,5.469-9.909,11.768.023.65.111,1.3.168,1.948h-5.137a33.649,33.649,0,0,1-1.3-6.34,12.839,12.839,0,0,1,4.206-11.117,37.809,37.809,0,0,1,7.829-4.962,21.218,21.218,0,0,0,8.85-8.191c2.7-4.758,5.952-9.161,8.816-13.807a32.511,32.511,0,0,1,13.308-12.416,17.6,17.6,0,0,0,9.677-12.927c.657-3.233,1.559-6.417,2.238-9.646,1.542-7.341,5.016-13.724,9.458-19.673a46.542,46.542,0,0,0,7.6-15.771c.664-2.437,1.424-4.85,2.2-7.253a27.34,27.34,0,0,1,4.106-8.554,8.352,8.352,0,0,1,10.664-2.749,14.194,14.194,0,0,1,7.34,7.522,30.18,30.18,0,0,1,2.338,10.818c.454,7.232,2.269,13.972,6.647,19.881,4.712,6.36,6.164,13.5,5.295,21.293a103.67,103.67,0,0,0-.9,16.223c.169,3.716.832,7.336,2.907,10.483,3.163,4.8,7.388,7.859,13.473,7.1,4.3-.535,7.391-3.038,9.651-6.617a43.366,43.366,0,0,0,3.16-7.013c1.334-3.285,2.629-6.608,5.1-9.264,3.412-3.662,8.319-3.586,11.7.125a14.02,14.02,0,0,1,3.188,7.543,50.119,50.119,0,0,1,.306,8.668,17.483,17.483,0,0,0,3.7,11.03,44.2,44.2,0,0,0,3.945,4.5c1.984,1.994,4.013,3.946,5.949,5.984,5.174,5.445,7.475,11.749,5.655,19.268C533.484,662.446,533.13,664.412,532.724,666.366Z" transform="translate(-158.418 -194.186)" fill="#fff"/>
      <path id="Path_2965" data-name="Path 2965" d="M1290.623,438.157v12.737a25.41,25.41,0,0,1-3.258-5.391c-4.065-7.755-7.3-16.712-10.479-25.695-4.249-12-9.661-21.333-16.617-27.759-5.546-5.125-10.937-10.826-16.388-16.306-4.051-4.074-8.073-8.247-12.236-11.93-5.177-4.58-10.348-4.959-15.565-.3-.735.656-1.5,1.209-2.22,1.908-5.945,5.758-12.17,7.384-18.742,4.718-3.823-1.551-7.652-3.045-11.439-4.882-6.947-3.37-13.923-6.485-21.092-7.7-5.884-1-11.149-4.832-15.906-11.272-1.713-2.32-3.473-4.522-5.228-6.733-6.351-8-13.076-14.533-20.552-18.159-5.67-2.75-11.477-3.732-17.278-4.707-5.863-.986-10.387-5.684-13.3-15.409-.934-3.122-1.758-6.324-2.5-9.61a55.4,55.4,0,0,1-.557-21.553c2.212-13.3,6.683-23.225,13.061-30.34,4.089-4.561,8.4-8.412,12.3-13.577,9.649-12.8,14.9-29.935,14.816-52.244a111.337,111.337,0,0,0-4.667-30.54c-1.891-6.625-4.025-13.008-5.624-19.925a67.533,67.533,0,0,1,.588-33.561,88.9,88.9,0,0,1,4.906-13.28,78.556,78.556,0,0,0,6.521-22.148c1.157-8.533,2.587-16.908,4.068-25.259,1.666-9.394,2.159-18.8.092-28.24h8.073a45.376,45.376,0,0,1,2.4,22.651A309.694,309.694,0,0,0,1141.1,57.1c-.294,13.068-3.373,23.324-9.019,31.063a61,61,0,0,0-4.705,7.6c-3.082,5.865-4.227,12.8-3.38,20.848a64.168,64.168,0,0,0,1.809,9.631c2.347,8.937,5.229,17.317,7.924,25.878,5.362,17.038,6.1,35.406,4.921,54.365-.559,9.013-3.648,15.346-7.165,21.01-4.392,7.075-9.325,12.731-14.188,18.566-3.631,4.355-7.327,8.551-10.3,14.51-5.207,10.418-4.954,25.392.577,35.244a30.844,30.844,0,0,0,8.453,9.4c3.862,3.061,7.773,5.9,11.629,8.986,6.074,4.856,11.878,10.731,17.7,16.534,8.658,8.634,17.925,14.526,27.085,20.889,7.069,4.91,14.217,9.33,21.734,11.338,6.615,1.767,12.833.149,18.516-6.786,1.5-1.828,3.065-3.463,4.6-5.2,3.325-3.772,6.67-3.77,10.116-.47a105.163,105.163,0,0,1,7.917,9.031c6.667,8.088,13.523,15.534,20.821,21.51,4.215,3.452,8.627,6,12.779,9.748q5.117,4.615,8.435,13.158c1.22,3.137,2.312,6.422,3.392,9.727C1283.6,422.436,1286.615,430.995,1290.623,438.157Z" transform="translate(-451.256 -0.976)" fill="#fff"/>
      <path id="Path_2966" data-name="Path 2966" d="M1078.862,1h5.871a83.36,83.36,0,0,1,1.431,10.1,72.209,72.209,0,0,1-1.159,15.362c-1.535,9.085-3.158,18.117-4.48,27.322a67.314,67.314,0,0,1-5.029,17.687c-1.173,2.665-2.351,5.327-3.473,8.064-5.955,14.525-6.936,29.915-2.314,46.191,1.611,5.673,3.337,11.236,4.965,16.893a100.289,100.289,0,0,1,4.13,23.633c.918,21.37-3.537,38.545-12.546,51.992-3.457,5.159-7.391,8.96-11.275,12.889a52.668,52.668,0,0,0-8.46,10.529c-3.981,6.764-6.685,14.927-8.012,24.55-1.709,12.395.85,22.917,4.49,32.885,2.419,6.625,5.859,10.393,10.185,11.427,2.14.511,4.281,1.059,6.431,1.372,10.874,1.584,21.057,7.025,30.249,17.965,3.412,4.06,6.759,8.3,10.15,12.423s7.074,7.021,11.152,8.077c4.8,1.242,9.632,2.131,14.362,4.146,6.387,2.72,12.749,5.644,19.148,8.261,4.549,1.86,9.15,2.989,13.813,1.2,3.225-1.235,6.216-3.667,9.109-6.367,5.453-5.088,10.793-4.917,16.156.239.361.346.744.61,1.1.961,9.521,9.293,19.016,18.666,28.566,27.86,5.64,5.432,10.2,12.913,13.786,22.51q3.681,9.854,7.578,19.436a71.775,71.775,0,0,0,7.73,14.769v18.284c-1.1-.959-2.185-2.011-3.313-2.86-2.736-2.058-4.652-5.565-5.92-10.418-1.368-5.23-2.758-10.448-4.265-15.548-5.48-18.546-12.506-34.5-22.576-45.595-7.053-7.773-14.04-15.7-21.755-21.176-5.4-3.83-10.739-3.809-16.02.758-1.252,1.083-2.543,2.022-3.774,3.179-5.035,4.733-10.241,5.483-15.661,2.572-2.658-1.427-5.36-2.573-8.038-3.873a62.519,62.519,0,0,0-12.31-4.76c-5.835-1.421-11.548-.258-17.192,2.493-3.739,1.823-6.99.143-9.924-4.266-2.147-3.226-4.045-6.908-5.976-10.531-3.971-7.45-8.268-14.137-13.376-18.9-9.679-9.023-19.4-9.877-29.177-.449q-1.89,1.823-3.839,3.448c-3.5,2.934-7.02,3.619-10.6.335-2.6-2.383-4.61-5.9-6.025-10.448-3.585-11.523-6.576-23.572-9.267-35.863a30.937,30.937,0,0,1,.3-14.508c.455-1.743.9-3.506,1.437-5.164,2.928-9.016,5.978-17.9,8.805-27.021,3.742-12.067,8.92-21.229,15.651-27.689a75.617,75.617,0,0,0,11.194-13.525,62.738,62.738,0,0,0,7.2-15.337c4.055-12.794,3.815-25.919.854-39.236-1.472-6.623-3.432-12.817-5.069-19.3-2.016-7.985-3.551-16.266-3.264-25.142.552-17.091,2.685-33.3,8.38-47.478a238.554,238.554,0,0,0,8.592-26.953A59.223,59.223,0,0,0,1078.862,1Z" transform="translate(-403.153 -0.976)" fill="#fff"/>
      <path id="Path_2967" data-name="Path 2967" d="M166.406,1h33.759c-.263.306-.509.629-.791.916-4.609,4.69-7.827,10.079-8.582,16.755a23.517,23.517,0,0,1-1.385,5.941c-1.538,3.937-4.166,6.567-8.554,7.063-1.336.151-2.669.331-4,.484-2.107.241-2.587.856-2.258,2.988A21.873,21.873,0,0,0,178.1,43.68c2.189,3.388,4.41,6.758,6.7,10.077a14.5,14.5,0,0,1,1.362,15.054,164.781,164.781,0,0,1-10.479,20.434,24.178,24.178,0,0,1-4.271,5.324,4.954,4.954,0,0,1-5.864.955,19.331,19.331,0,0,1-2.243-1.239,42.131,42.131,0,0,1-6.465-5.4c-3.529-3.452-6.652-7.283-10.091-10.819a21,21,0,0,0-7.212-5.346,8.338,8.338,0,0,0-7.843.665,16.315,16.315,0,0,0-4.573,4.529,40.1,40.1,0,0,0-4.767,9.744,29.418,29.418,0,0,1-2.889,6.323,10.059,10.059,0,0,1-9.759,4.6,4.023,4.023,0,0,1-3.409-2.265,18.434,18.434,0,0,1-1.306-3.421,59.405,59.405,0,0,0-9.366-18.842c-2.415-3.235-4.985-6.345-7.527-9.479-3.723-4.591-7.444-9.178-10.142-14.5-2.936-5.787-2.828-11.435.551-16.992,1.44-2.368,2.923-4.709,4.355-7.081a15.043,15.043,0,0,0,1.715-12,65.652,65.652,0,0,0-2.665-7.736A24.134,24.134,0,0,1,80.051,1h34.493c.13.515.583.77.926,1.1a29.762,29.762,0,0,1,6.971,10.232c.478,1.169,1,2.321,1.561,3.454,5.121,10.391,13.26,16.34,25,17.09,6.331.4,12.625-.259,18.934-.467a30.661,30.661,0,0,0,4.265-.3,2.081,2.081,0,0,0,1.932-1.728,76.744,76.744,0,0,1,3.227-10.25,11.118,11.118,0,0,0-2.525-12.1c-.72-.775-1.485-1.512-2.259-2.234C170.666,4.009,168.468,2.591,166.406,1Zm12.307,66.319a17.31,17.31,0,0,0-2.183-8.8A41.43,41.43,0,0,0,167.6,47.59a25.115,25.115,0,0,0-12.839-6.409c-2.165-.389-4.342-.736-6.526-.992a40.656,40.656,0,0,1-16.569-5.861c-9.1-5.528-16.7-12.721-23.637-20.691-2.111-2.425-4.013-5.047-6.559-7.067a6.762,6.762,0,0,0-3.02-1.536,2.133,2.133,0,0,0-2.782,1.975,10.722,10.722,0,0,0,0,3.412,16.744,16.744,0,0,1-4.952,14.84c-.314.319-.6.665-.9,1a83.9,83.9,0,0,0-6.386,7.561,16.281,16.281,0,0,0-3.3,11.243,22.5,22.5,0,0,0,3.324,9.119C86.915,60.048,91.42,65.1,95.917,70.16c3.411,3.835,6.589,7.9,10.439,11.317,4.759,4.227,8.4,3.959,12.563-.852,1.731-2,3.324-4.124,4.991-6.183a36.333,36.333,0,0,1,7.183-7.29,9,9,0,0,1,10.739-.234,29.126,29.126,0,0,1,5.422,4.544c2.2,2.295,4.336,4.651,6.561,6.921a26.257,26.257,0,0,0,7.29,5.492c4.718,2.269,8.951,1.448,12.3-2.554A21.905,21.905,0,0,0,178.713,67.319Z" transform="translate(-57.518 -0.976)" fill="#fff"/>
      <path id="Path_2968" data-name="Path 2968" d="M666.394,1h9.051c.108.446.519.608.826.857a98.6,98.6,0,0,0,12.469,8.385c7.242,4.238,14.755,7.835,22.986,9.751a66.9,66.9,0,0,1,8.541,2.57c5,1.9,9.14,5.14,13.228,8.462,1.486,1.208,2.931,2.467,4.416,3.677,5.581,4.548,8.217,10.514,8.421,17.613.205,7.15.719,14.24,2.972,21.107a61.614,61.614,0,0,1,2.336,8.734c1.26,7.332-2.239,13.387-9.228,15.943a24.336,24.336,0,0,1-11.688,1.142,60.913,60.913,0,0,1-13.594-3.934,30.079,30.079,0,0,0-21.176-.261c-1.693.589-3.409,1.114-5.1,1.711a30.593,30.593,0,0,1-10.168,1.893c-4.524.008-9.051.017-13.572-.123a43.6,43.6,0,0,1-10.89-1.377c-7.925-2.3-13.158-7.221-15.027-15.445a95.465,95.465,0,0,1-1.688-11.237c-1.213-11.567-4.15-22.565-10.176-32.645-3.192-5.339-5.812-10.946-6.623-17.229-.839-6.5.5-12.26,5.65-16.711,1.2-1.035,2.521-1.926,3.787-2.883h9.786c-1.968,1.045-4.068,1.828-5.959,3.03-4.062,2.582-7.037,5.935-7.676,10.907a17.568,17.568,0,0,0,1.674,9.987,34.287,34.287,0,0,0,6.318,8.658,27.239,27.239,0,0,1,7.437,16c.486,4.136.555,8.293.858,12.438a67.1,67.1,0,0,0,2.456,15.289c1.98,6.327,6.112,10.391,12.593,11.893a44.223,44.223,0,0,0,16.4.465c4.111-.59,7.922-2.193,11.81-3.526a44.349,44.349,0,0,1,23.145-1.49,104.273,104.273,0,0,1,12.169,3.644,29.207,29.207,0,0,0,9.7,1.754c5.962-.148,9.585-3.559,10-9.506a29.389,29.389,0,0,0-.036-5.007c-.7-6.938-1-13.9-1.31-20.861-.252-5.727-1.958-10.911-6-15.107-6.128-6.359-13.1-11.483-21.551-14.387-5.739-1.972-11.587-3.669-17.008-6.469C686.475,13.3,676.448,7.127,666.394,1Z" transform="translate(-305.253 -0.976)" fill="#fff"/>
      <path id="Path_2969" data-name="Path 2969" d="M662.022,1h22.017c.052.061.092.144.158.18,7.254,4.067,14.226,8.6,21.452,12.723a114.275,114.275,0,0,0,24.04,10.779c7.271,2.155,13.553,6.016,19.435,10.762,7.1,5.732,10.935,12.82,10.808,22.066-.056,4.064.281,8.142.622,12.206a77.8,77.8,0,0,1,.585,10.123c-.3,6.543-4.742,10.368-11.273,9.793-4.2-.369-8.118-1.764-12.03-3.151-11.562-4.1-23.06-4.246-34.538.3a41.7,41.7,0,0,1-23.649,2.294c-5.962-1.145-10.407-4.291-12.844-9.988a34.029,34.029,0,0,1-1.873-6.447c-1.432-6.818-1.431-13.769-1.94-20.674-.42-5.7-1.644-11.141-5.272-15.759-1.208-1.537-2.51-3-3.8-4.476a29.11,29.11,0,0,1-5.661-8.793c-2.391-6.36-.964-12.258,4.06-16.624a21.565,21.565,0,0,1,5.022-3.237C658.889,2.354,660.461,1.69,662.022,1Zm7.63,56.944a72.581,72.581,0,0,0,.24,7.574,30.99,30.99,0,0,0,1.026,5.894c1.958,7.017,6.45,10.7,13.755,11.37a30.867,30.867,0,0,0,13.674-2.041c10.269-3.8,20.82-4.383,31.576-3.04a100.451,100.451,0,0,0,12.52,1.266,11.3,11.3,0,0,0,7.274-2.048,11.663,11.663,0,0,0,3.75-5.891c1.434-4.4,1.618-8.955,1.729-13.529.193-7.928-2.951-14.246-8.889-19.408A53.263,53.263,0,0,0,728.354,27.9c-6.594-2.26-13.22-4.464-19.293-7.974-7.207-4.165-14.7-7.769-22.158-11.443-4.16-2.05-8.445-3.7-13.147-3.913a24.484,24.484,0,0,0-14.948,3.659c-3.873,2.534-5.872,6.056-5.055,10.807a13.29,13.29,0,0,0,3.368,6.557c1.621,1.83,3.332,3.579,5.026,5.342a24.112,24.112,0,0,1,6.01,10.632A57.035,57.035,0,0,1,669.652,57.944Z" transform="translate(-324.75 -0.976)" fill="#fff"/>
      <path id="Path_2970" data-name="Path 2970" d="M237,1h50.394c.174.465.637.609.992.857a53.613,53.613,0,0,1,7.025,5.669c3.871,3.814,5.152,8.133,2.958,13.322a50.208,50.208,0,0,0-2.748,8.6c-.427,1.912-.84,2.25-2.828,2.364-5.814.332-11.625.76-17.451.815a38.6,38.6,0,0,1-10.9-1.173c-8.791-2.472-14.687-8.249-18.5-16.346-1.681-3.57-3.054-7.3-5.655-10.365C239.214,3.478,238.1,2.247,237,1Z" transform="translate(-179.24 -0.976)" fill="#fff"/>
      <path id="Path_2971" data-name="Path 2971" d="M.917,43.492Q.917,22.748.89,2c0-.965.27-1.118,1.148-1.1,2.724.061,5.45.022,8.175.022.365.535.707,1.089,1.1,1.6a52.754,52.754,0,0,1,5.878,8.981c2.336,4.817,2.594,9.6.121,14.448-1.073,2.1-2.115,4.226-3.1,6.373a16.084,16.084,0,0,0-.064,13.955,37.08,37.08,0,0,0,1.736,3.364,88.435,88.435,0,0,0,7.5,10.4c3.815,4.77,7.908,9.327,11.157,14.532A26.293,26.293,0,0,1,38.2,82.936c1.135,5.274-1.046,8.933-6.226,10.452a19.859,19.859,0,0,1-2.263.512c-5.16.874-10.23.1-15.289-.863-4.477-.85-8.9-2.071-13.5-2.086V85.324a94.093,94.093,0,0,1,10.738,2.339A39.054,39.054,0,0,0,24.113,89c6.849-.593,9.822-5.069,7.618-11.582A24.416,24.416,0,0,0,28.4,71.051,142.74,142.74,0,0,0,8.86,49.562,41.731,41.731,0,0,0,.917,43.492Z" transform="translate(-0.89 -0.902)" fill="#fff"/>
      <path id="Path_2972" data-name="Path 2972" d="M686.041,955.389h-7.094c-1.717-4.052-2.655-8.381-4.4-12.424-2.445-5.68-6.355-9.947-12.272-12.023-6.207-2.178-11.917.575-14.485,6.616a21.2,21.2,0,0,0-1.628,8.925,67.9,67.9,0,0,1,0,8.906h-8.317c-.037-.607-.035-1.22-.118-1.821a41.773,41.773,0,0,0-2.952-9.555,15.463,15.463,0,0,1,1.327-14.388c3.5-5.814,8.487-10.042,14.193-13.525a8.424,8.424,0,0,1,8.943-.207c.788.427,1.591.834,2.341,1.321a91.006,91.006,0,0,1,17.988,15.358c2.7,2.987,4.752,6.337,5.134,10.464.177,1.906.2,3.826.332,5.737A24.663,24.663,0,0,0,686.041,955.389Z" transform="translate(-341.702 -483.209)" fill="#fff"/>
      <path id="Path_2973" data-name="Path 2973" d="M1,403.166v-7.339a34.594,34.594,0,0,1,8.751.666,122.785,122.785,0,0,0,18.009,2.569c4.763.2,9.521.509,14.284.691,3.483.133,5.715,1.686,6.667,5.135a64.538,64.538,0,0,0,3.59,9.35,43.064,43.064,0,0,1,2.375,6.786c1.2,4.535.9,8.813-2.272,12.558a17.964,17.964,0,0,1-4.516,3.705c-5.458,3.292-11.491,5.191-17.478,7.2-9.8,3.291-20,5.345-29.409,9.8v-6.85c11.282-1.671,22.339-4.2,32.818-8.832a27.4,27.4,0,0,0,8.9-5.928,10.928,10.928,0,0,0,2.75-11.5,19.393,19.393,0,0,0-3.777-6.635,21.85,21.85,0,0,0-13.643-7.721c-6.675-1.077-13.344-2.182-19.992-3.419A21.236,21.236,0,0,0,1,403.166Z" transform="translate(-0.973 -201.536)" fill="#fff"/>
      <path id="Path_2974" data-name="Path 2974" d="M1,470.342V462.27a25.9,25.9,0,0,0,7.994.706,49.553,49.553,0,0,0,15.092-3.3A21.646,21.646,0,0,0,32,454.74c3.429-3.56,3.193-8.293-.572-11.471a15.531,15.531,0,0,0-7.672-3.235,94.764,94.764,0,0,0-14.474-1.145A14.375,14.375,0,0,0,1,440.987V427.043a16.617,16.617,0,0,1,6.912.148c6.1,1.052,12.171,2.264,18.312,3.107,7.611,1.046,13.586,4.709,17.488,11.5,3.164,5.511,2.415,10.6-2.308,14.842a27.365,27.365,0,0,1-5.856,3.964c-7.761,3.979-16.116,6.153-24.566,8.006A66.92,66.92,0,0,1,1,470.342Z" transform="translate(-0.973 -224.384)" fill="#fff"/>
      <path id="Path_2975" data-name="Path 2975" d="M1,792.828V785c3,2.941,5.667,6.19,8.508,9.279,3.447,3.747,7.333,6.72,12.608,7.3,1.5.166,3,.33,4.494.508a16.671,16.671,0,0,1,8.422,3.316,48.958,48.958,0,0,1,9.224,9.889,27.57,27.57,0,0,1,3.842,6.5,3.644,3.644,0,0,1-.841,4.162,16.182,16.182,0,0,1-1.837,1.6c-1.535,1.144-3.158,2.176-4.648,3.374-5.814,4.674-8.542,10.657-7.475,18.165a37.962,37.962,0,0,0,2.441,8.3H30.845c-.371-1.248-.73-2.5-1.114-3.746a25.026,25.026,0,0,1-.611-13.268,56.131,56.131,0,0,1,2.476-8.049c.949-2.384,1.985-4.738,2.814-7.163,1.582-4.628.214-8.316-3.909-10.948a26.875,26.875,0,0,0-6.711-2.9A34.3,34.3,0,0,1,6.391,799.3,77.705,77.705,0,0,0,1,792.828Z" transform="translate(-0.973 -385.231)" fill="#fff"/>
      <path id="Path_2976" data-name="Path 2976" d="M1596.191,54.085v6.36a62.849,62.849,0,0,1-8.031-6.736c-3.932-3.727-7.539-7.807-11.782-11.192a111.75,111.75,0,0,1-15.938-15.634,31.692,31.692,0,0,0-12.9-9.616c-7.46-2.863-14.664-3.232-21.388,2.045a13.286,13.286,0,0,1-7.32,2.838,43.541,43.541,0,0,1-17.791-2.448,8.991,8.991,0,0,1-5.115-4.663,29.636,29.636,0,0,1-1.605-3.959Q1492.661,6.04,1491,1h4.893a52.247,52.247,0,0,0,3.974,6.734c4.084,5.659,9.527,8.228,16.518,7.242a28.822,28.822,0,0,0,7.6-2.623c3.93-1.747,7.963-2.909,12.337-2.211,11.3,1.8,21.048,6.437,28.5,15.394a80.507,80.507,0,0,0,8.368,9.075q9.715,8.58,19.556,17.018A12.085,12.085,0,0,0,1596.191,54.085Z" transform="translate(-756.824 -0.976)" fill="#fff"/>
      <path id="Path_2977" data-name="Path 2977" d="M1,500.39v-20.3a16.91,16.91,0,0,1,9.24-2.227,112.584,112.584,0,0,1,12.422,1.033c3.53.513,6.846,1.552,9.376,4.275a6.4,6.4,0,0,1,.613,8.591,15.006,15.006,0,0,1-5.388,4.513,44.238,44.238,0,0,1-14.878,4.577A25.664,25.664,0,0,1,1,500.39Z" transform="translate(-0.973 -260.429)" fill="#fff"/>
      <path id="Path_2978" data-name="Path 2978" d="M718.522,1004.565h-31.8c-.027-3.092-.033-6.184-.088-9.276a19.874,19.874,0,0,1,1.543-8.084c2.793-6.738,9.206-9.229,15.72-5.974a21.712,21.712,0,0,1,10.64,11.929C716.023,996.905,716.963,1000.844,718.522,1004.565Z" transform="translate(-377.25 -532.385)" fill="#fff"/>
      <path id="Path_2979" data-name="Path 2979" d="M932.654,988.637h-19.57c-.052-.47-.477-.637-.769-.893-1.773-1.561-3.59-3.07-5.341-4.655a40.3,40.3,0,0,1-7.286-7.859,7.47,7.47,0,0,1,.226-9.2,16.393,16.393,0,0,1,3.386-3.5c4.428-3.422,9.242-4.983,14.712-2.79a32.815,32.815,0,0,1,12.463,8.8,15.7,15.7,0,0,1,3.969,12.766A47.227,47.227,0,0,1,932.654,988.637ZM916.165,966.8c-5.434-.036-8.032,4.2-5.569,9.074a13.172,13.172,0,0,0,2.089,3c2.559,2.77,5.467,5.044,9.233,5.89a4.93,4.93,0,0,0,6.135-3.5,8.285,8.285,0,0,0,.467-2.514C928.683,972.719,922.613,966.842,916.165,966.8Z" transform="translate(-491.467 -516.457)" fill="#fff"/>
      <path id="Path_2980" data-name="Path 2980" d="M1212.871,1043.441H1207c.086-.686.164-1.373.257-2.059a10.66,10.66,0,0,1,6.573-8.9,16.226,16.226,0,0,1,9.24-.934,57.207,57.207,0,0,1,11.316,3.479,15.765,15.765,0,0,0,11.808,0c1.4-.554,2.841-1.015,4.282-1.46a22.939,22.939,0,0,1,14.308-.155,42.6,42.6,0,0,1,14.516,8.388c.569.492,1.3.859,1.579,1.64h-9.052c-.056-.1-.085-.243-.171-.3a14.323,14.323,0,0,0-10.957-2.771c-1.828.3-3.438,1.072-4.04,3.074h-25.931c-1.648-4.689-7.552-7.3-12.369-6.29A6.622,6.622,0,0,0,1212.871,1043.441Z" transform="translate(-636.429 -571.262)" fill="#fff"/>
      <path id="Path_2981" data-name="Path 2981" d="M1170.562,1007.341h-4.4c-.193-1.534-.47-3.063-.564-4.6a11.97,11.97,0,0,1,3.788-10.042c3.785-3.5,8.408-5.194,13.37-6.109a44.505,44.505,0,0,1,12.665-.119,54.634,54.634,0,0,0,15.22-.155c3.572-.635,7.1-1.455,10.623-2.307a17.447,17.447,0,0,1,13.912,2.45c1.62,1.018,3.213,2.08,4.8,3.152,9.265,6.258,18.037,13.307,28.443,17.735h-10.275a1.89,1.89,0,0,0-.281-.384c-6.811-5.535-13.835-10.76-21.753-14.647a25.559,25.559,0,0,0-8.73-2.629c-3.717-.376-7.309.35-10.9,1.113-4.754,1.011-9.5,2.019-14.4,1.142q-3.368-.6-6.743-1.154c-4.867-.79-9.74-1.13-14.521.437-4.994,1.637-8.618,4.689-9.879,10.041A25.735,25.735,0,0,0,1170.562,1007.341Z" transform="translate(-593.584 -535.162)" fill="#fff"/>
      <path id="Path_2982" data-name="Path 2982" d="M1514,1h4.648a18.679,18.679,0,0,0,2.627,3.207A14.119,14.119,0,0,0,1534.9,8.371a57.645,57.645,0,0,0,6.338-1.831,23.078,23.078,0,0,1,13.836-.261c2.546.741,5.045,1.612,7.559,2.442a51.54,51.54,0,0,1,24.026,15.935,72.114,72.114,0,0,0,11.013,10.738c4.182,3.253,8.282,6.608,12.369,9.979a18.544,18.544,0,0,0,3.525,2.595V53.6c-.337-.227-.683-.441-1.009-.683-4.029-3-7.573-6.555-11.387-9.8-6.392-5.437-12.872-10.765-18.156-17.368-6.411-8.012-14.822-12.771-24.725-15.179-5.825-1.416-11.443-1.386-16.922,1.269-1.135.55-2.31,1.02-3.479,1.5a16.7,16.7,0,0,1-7.611,1.458C1523.14,14.247,1515.865,8.062,1514,1Z" transform="translate(-774.198 -0.976)" fill="#fff"/>
      <path id="Path_2983" data-name="Path 2983" d="M1274,1027.581h-7.094c-.026-.424-.384-.607-.643-.845a45.344,45.344,0,0,0-13.7-8.784,24.12,24.12,0,0,0-14.133-1.37,55.033,55.033,0,0,0-8.277,2.549,13.112,13.112,0,0,1-9.311-.07c-2.03-.731-4.048-1.495-6.091-2.187a29.688,29.688,0,0,0-10.162-1.813c-7.8.147-12.456,4.749-12.541,12.52h-4.4c-.877-8.319,3.345-14.217,11.517-16.177a31,31,0,0,1,12.133-.08c3.459.536,6.871,1.369,10.385,1.57,4.552.261,8.915-.857,13.269-1.864a25.538,25.538,0,0,1,18.68,2.489,111.012,111.012,0,0,1,11.509,7.165A96.642,96.642,0,0,1,1274,1027.581Z" transform="translate(-617.269 -555.401)" fill="#fff"/>
      <path id="Path_2984" data-name="Path 2984" d="M1,191.433V177c.837.58,1.7,1.123,2.506,1.747,8.713,6.769,16.128,14.819,22.977,23.414a26.546,26.546,0,0,1,5.246,9.588c1.264,4.715-.681,8.1-5.392,9.425a20.777,20.777,0,0,1-8.612.254c-5.66-.795-11.067-2.77-16.724-3.576V210.27c4.328,2,8.638,4.045,13.35,5.016a15.4,15.4,0,0,0,7.146.1,4.57,4.57,0,0,0,3.737-5.008,10.363,10.363,0,0,0-1.586-4.953,34,34,0,0,0-11.438-11.669A15.109,15.109,0,0,0,1,191.433Z" transform="translate(-0.973 -93.109)" fill="#fff"/>
      <path id="Path_2985" data-name="Path 2985" d="M1,254.633v-18.1c4.906-.676,9.128.954,12.977,3.845a37.061,37.061,0,0,1,8.142,8.363,16.615,16.615,0,0,1,2.423,4.77c.991,3.314-.539,5.813-3.931,6.513a13.725,13.725,0,0,1-5.333-.127C10.219,258.959,5.644,256.7,1,254.633Z" transform="translate(-0.973 -128.945)" fill="#fff"/>
      <path id="Path_2986" data-name="Path 2986" d="M199.091,1024.853h-6.605c-.035-.072-.051-.171-.108-.21-4.888-3.288-10.215-4.936-16.13-4.111a5.427,5.427,0,0,0-4.556,4.321h-8.807a9.118,9.118,0,0,0-.551-2.49,43.188,43.188,0,0,1-1.358-6.067c-.612-5.124,2.758-9.327,7.746-9.613a11.186,11.186,0,0,1,5.1,1.063,167.6,167.6,0,0,1,15.1,7.454A29.253,29.253,0,0,1,199.091,1024.853Z" transform="translate(-121.761 -552.673)" fill="#fff"/>
      <path id="Path_2987" data-name="Path 2987" d="M1536,1h6.606a8.593,8.593,0,0,0,4.049,1.593c4.012.584,7.829-.389,11.606-1.593h9.052c.091.076.171.191.276.221,5.387,1.514,10.449,3.893,15.662,5.873a59.012,59.012,0,0,1,23.586,15.875,65.592,65.592,0,0,0,6.146,5.941c4.02,3.47,8.555,6.23,12.83,9.349a41.087,41.087,0,0,0,4.368,3.105V47.48c-3.288-2.413-6.277-5.2-9.516-7.667a116.22,116.22,0,0,1-18.39-16.945,42.736,42.736,0,0,0-10.159-8.734c-5.461-3.366-11.47-5.41-17.49-7.473a27.091,27.091,0,0,0-18.9.067,27.471,27.471,0,0,1-5.672,1.465A14.385,14.385,0,0,1,1536,1Z" transform="translate(-790.816 -0.976)" fill="#fff"/>
      <path id="Path_2988" data-name="Path 2988" d="M30.356,883.849H25.708a37.734,37.734,0,0,1-1.2-15.485c.591-3.741,1.225-7.475,1.809-11.218.957-6.14-.95-10.993-6.432-14.238-1.191-.706-2.325-1.506-3.507-2.228a45.231,45.231,0,0,1-11.109-9.293Q3.14,828.872,1,826.36V820c.944,1.122,1.964,2.19,2.82,3.376,5.368,7.442,12.15,12.887,21.163,15.3a19.6,19.6,0,0,1,4.9,2.187c4.277,2.551,5.6,6.1,4.03,10.819-.231.7-.483,1.386-.764,2.063a87.711,87.711,0,0,0-3.91,10.668,29.2,29.2,0,0,0-.824,11.986A73.587,73.587,0,0,0,30.356,883.849Z" transform="translate(-0.973 -411.669)" fill="#fff"/>
      <path id="Path_2989" data-name="Path 2989" d="M909.2,1h13.7c-.642,2.313-1.363,4.609-1.908,6.945a6.492,6.492,0,0,1-5.786,5.316,55.786,55.786,0,0,1-12.306.554c-8.924-.49-16.832-3.89-24.269-8.585A27.833,27.833,0,0,1,873,1h7.094c6.293,4.638,13.179,7.255,21.109,5.819A10.764,10.764,0,0,0,909.2,1Z" transform="translate(-471.81 -0.976)" fill="#fff"/>
      <path id="Path_2990" data-name="Path 2990" d="M25.218,906.509H20.081c.008-2.849-.351-5.681-.295-8.536.1-4.824,1.112-9.538,1.607-14.314.682-6.564-1.26-11.925-6.582-16.006a79.222,79.222,0,0,1-11.076-9.568c-.9-1-1.823-1.966-2.736-2.948V850c.5.109.669.568.938.9A51.079,51.079,0,0,0,15.224,863.2c1.985,1.2,3.95,2.432,5.825,3.806a11.653,11.653,0,0,1,5.007,11.233c-.268,2.8-.739,5.565-1.247,8.325-.92,4.99-1.512,9.988-.567,15.044C24.548,903.244,24.892,904.875,25.218,906.509Z" transform="translate(-0.973 -434.33)" fill="#fff"/>
      <path id="Path_2991" data-name="Path 2991" d="M1670,1h7.828c.282.453.79.556,1.223.747,3.539,1.557,7.08,3.111,10.635,4.632a63.633,63.633,0,0,1,18.348,11.455c2.728,2.506,5.418,5.054,8.345,7.335,4.651,3.624,9.967,6.148,15.023,9.1v6.605c-2.807-2.027-5.546-4.155-8.434-6.059a87.368,87.368,0,0,1-15.7-13.334,60.761,60.761,0,0,0-6.535-6.062c-4.873-3.871-10.435-6.475-16.156-8.776C1679.739,4.7,1674.924,2.709,1670,1Z" transform="translate(-892.035 -0.976)" fill="#fff"/>
      <path id="Path_2992" data-name="Path 2992" d="M1,878.648V874c1.787,1.834,3.454,3.781,5.33,5.534,2.8,2.618,5.958,4.8,8.883,7.26a15.155,15.155,0,0,1,5.805,10.5A28.176,28.176,0,0,1,20.7,904.1c-1.045,6.815-1.8,13.637-.867,20.534H13.721c1.183-6.562,2.469-13.111,3.3-19.727.664-5.276.114-10.345-3.572-14.6a15.606,15.606,0,0,0-1.152-1.261Q6.658,883.84,1,878.648Z" transform="translate(-0.973 -452.458)" fill="#fff"/>
      <path id="Path_2993" data-name="Path 2993" d="M13.155,941.256c-3.837,0-7.673,0-11.509-.008-.311,0-.871.257-.722-.482,3.628-.109,6.09-2.048,7.788-5.078a39.161,39.161,0,0,0,3.745-10.934,25.883,25.883,0,0,0,.632-6.791,15.823,15.823,0,0,0-3.6-9.542,56.23,56.23,0,0,0-8.562-8.266V896c3.959,3.969,8.586,7.231,12.245,11.515a14.982,14.982,0,0,1,3.423,7.707,23.519,23.519,0,0,1-.19,7.535C15.321,928.923,14.495,935.135,13.155,941.256Z" transform="translate(-0.897 -469.077)" fill="#fff"/>
      <path id="Path_2994" data-name="Path 2994" d="M1706,1h5.626a20.912,20.912,0,0,0,4.7,2.26,86.554,86.554,0,0,1,24.561,14.421,62.489,62.489,0,0,0,17.707,10.228v5.871c-1.406-.82-2.775-1.71-4.224-2.446a73.107,73.107,0,0,1-17.449-12.612,58.489,58.489,0,0,0-9.8-7.653c-5.051-3.109-10.529-5.311-15.946-7.646A40.744,40.744,0,0,1,1706,1Z" transform="translate(-919.229 -0.976)" fill="#fff"/>
      <path id="Path_2995" data-name="Path 2995" d="M1,919.159V915a99.626,99.626,0,0,1,7.537,7.3,16.471,16.471,0,0,1,4.127,13.337,46.287,46.287,0,0,1-3.112,11.767c-1.568,3.964-4.1,6.81-8.552,7.468v-6.116a8.725,8.725,0,0,0,3.825-2.939,19.577,19.577,0,0,0,3.268-6.388A17.492,17.492,0,0,0,1,919.159Z" transform="translate(-0.973 -483.429)" fill="#fff"/>
      <path id="Path_2996" data-name="Path 2996" d="M1733,1h5.626a2.778,2.778,0,0,0,1.367.744c6.885,2.87,13.745,5.784,19.878,10.135,3.022,2.144,6.005,4.354,9.22,6.209a51.528,51.528,0,0,0,9.9,4.683V27.42c-5.718-2.424-11.332-5.073-16.1-9.135a89.814,89.814,0,0,0-25.812-15.38A22.609,22.609,0,0,1,1733,1Z" transform="translate(-939.624 -0.976)" fill="#fff"/>
      <path id="Path_2997" data-name="Path 2997" d="M526.049,1054.587H502.565a44.055,44.055,0,0,1-.036-5.606c.334-2.334,1.445-3.254,3.754-2.859,4.251.726,8.442,1.744,12.638,2.729a11.832,11.832,0,0,1,2.4.891A8.581,8.581,0,0,1,526.049,1054.587Z" transform="translate(-278.071 -582.407)" fill="#fff"/>
      <path id="Path_2998" data-name="Path 2998" d="M1799.385,18.613v3.669a5.651,5.651,0,0,1-.813-.215,68.623,68.623,0,0,1-12.549-6.774c-5.1-3.573-10.141-7.247-15.866-9.807C1766.778,3.976,1763.386,2.495,1760,1h6.6a12.911,12.911,0,0,0,1.193.58,79.072,79.072,0,0,1,18.115,9.445A78.166,78.166,0,0,0,1799.385,18.613Z" transform="translate(-960.019 -0.976)" fill="#fff"/>
      <path id="Path_2999" data-name="Path 2999" d="M905,1h27.888c-2.473,4-6.244,5.73-10.765,5.847C915.725,7.012,910.155,4.569,905,1Z" transform="translate(-498.793 -0.976)" fill="#fff"/>
      <path id="Path_3000" data-name="Path 3000" d="M1,962.622v-6.605a3.806,3.806,0,0,0,1.285-1.423A12.673,12.673,0,0,0,1,938.893V934a43.089,43.089,0,0,1,3.939,4.17,14.822,14.822,0,0,1,3.385,6.823c1.015,6.12-.876,11.4-4.924,15.977A6.738,6.738,0,0,1,1,962.622Z" transform="translate(-0.973 -497.781)" fill="#fff"/>
      <path id="Path_3001" data-name="Path 3001" d="M1823.556,14.455v3.669a97.733,97.733,0,0,1-15.071-8.745,67.328,67.328,0,0,0-12.676-6.774c-1.277-.516-2.54-1.07-3.809-1.606h9.3a5.315,5.315,0,0,0,2.005,1.075c4.515,2.143,8.409,5.252,12.547,7.982A42.939,42.939,0,0,0,1823.556,14.455Z" transform="translate(-984.191 -0.976)" fill="#fff"/>
      <path id="Path_3002" data-name="Path 3002" d="M1685.183,1068.912H1648c2.172-.921,4.448-1.533,6.691-2.239a36.845,36.845,0,0,1,7.04-1.475C1669.887,1064.306,1677.545,1066.546,1685.183,1068.912Z" transform="translate(-875.417 -596.732)" fill="#fff"/>
      <path id="Path_3003" data-name="Path 3003" d="M1249.124,1062.1H1232c1.121-4.176,3.678-6.344,7.6-6.1C1243.841,1056.265,1247.209,1058.1,1249.124,1062.1Z" transform="translate(-684.867 -589.924)" fill="#fff"/>
      <path id="Path_3004" data-name="Path 3004" d="M1834,1h9.051a97.647,97.647,0,0,0,9.632,7.792,7.812,7.812,0,0,0,2.6,1.5v3.669c-.794-.4-1.6-.783-2.382-1.21C1846.382,9.188,1840.821,4.081,1834,1Z" transform="translate(-1015.916 -0.976)" fill="#fff"/>
      <path id="Path_3005" data-name="Path 3005" d="M226.57,1068.186H207c.659-2.453,2.579-4.016,5.672-4.133A22.33,22.33,0,0,1,226.57,1068.186Z" transform="translate(-156.579 -596.006)" fill="#fff"/>
      <path id="Path_3006" data-name="Path 3006" d="M1885.5,5.4v4.4c-.424-.236-.863-.448-1.27-.711A95.436,95.436,0,0,1,1874,1h6.849A23.07,23.07,0,0,0,1885.5,5.4Z" transform="translate(-1046.13 -0.976)" fill="#fff"/>
      <path id="Path_3007" data-name="Path 3007" d="M1,972.656V957a13.654,13.654,0,0,1,2.041,3.308C4.9,964.459,4.011,969.789,1,972.656Z" transform="translate(-0.973 -515.154)" fill="#fff"/>
      <path id="Path_3008" data-name="Path 3008" d="M1425.943,1072.055H1412a4.465,4.465,0,0,1,3.555-2.655C1419.425,1068.617,1422.831,1069.8,1425.943,1072.055Z" transform="translate(-786.839 -599.875)" fill="#fff"/>
      <path id="Path_3009" data-name="Path 3009" d="M1108,1069.735a7.149,7.149,0,0,1,1.642-2.673,2.594,2.594,0,0,1,4.054,0,7.142,7.142,0,0,1,1.643,2.673Z" transform="translate(-620.657 -597.555)" fill="#fff"/>
      <path id="Path_3010" data-name="Path 3010" d="M1567,1h12.965a28.163,28.163,0,0,1-6.165,1.311A10.822,10.822,0,0,1,1567,1Z" transform="translate(-814.233 -0.976)" fill="#fff"/>
      <path id="Path_3011" data-name="Path 3011" d="M1906.647,5.359A23.023,23.023,0,0,1,1902,.956c1.386,0,2.773.023,4.158-.013.427-.011.515.077.5.5C1906.625,2.749,1906.647,4.054,1906.647,5.359Z" transform="translate(-1067.281 -0.932)" fill="#fff"/>
      <path id="Path_3012" data-name="Path 3012" d="M81.14,346.545a29.717,29.717,0,0,1,.317-8.888,11.948,11.948,0,0,1,1.384-3.641c1.7-2.817,4.343-3.554,7.213-1.974a16.717,16.717,0,0,1,4.907,4.355A21.133,21.133,0,0,1,98.7,343.08a10.062,10.062,0,0,1-.83,8.265,31.511,31.511,0,0,1-2.9,4.377,9.854,9.854,0,0,0-1.527,10.128,64.718,64.718,0,0,0,10.66,18.16,109.953,109.953,0,0,0,13.44,13.846c1.256,1.1,2.455,2.269,3.609,3.476,2.174,2.272,3.011,4.912,1.879,7.965-1.126,3.037-3.582,4.282-6.582,4.739a67.45,67.45,0,0,1-7.19.507,23.209,23.209,0,0,0-5.539.884c-4.751,1.4-7.853,4.625-9.857,9.029-2.088,4.588-2.781,9.521-3.539,14.436a70.835,70.835,0,0,1-2.178,10.276A17.9,17.9,0,0,1,80.6,459.219a43.752,43.752,0,0,1-6.361,3.381c-5.932,2.58-11.193,1.5-15.915-2.817-2.653-2.424-5.066-5.079-7.556-7.659a52.576,52.576,0,0,0-19.43-12.61,63.82,63.82,0,0,1-8.636-3.727,27.833,27.833,0,0,1-10.916-10.764,14.743,14.743,0,0,1-1.916-5.887c-.387-4.2,1.433-7.336,4.759-9.7,3.7-2.634,7.953-4.1,12.182-5.593,9.314-3.288,18.9-5.625,28.451-8.077a49.581,49.581,0,0,0,7.646-2.551c5.959-2.616,9.148-7.236,9.865-13.646a44.981,44.981,0,0,0,.072-8.667c-.355-4.347.656-8.108,4.255-10.857,3.527-2.694,4.744-6.269,4.223-10.57C81.2,348.5,81.2,347.521,81.14,346.545Zm2.05,88.522a66.689,66.689,0,0,0-6.09-24.8,11.212,11.212,0,0,0-6.757-6.172,41.144,41.144,0,0,0-12.463-2.216c-10.248-.39-19.978,1.918-29.394,5.762a30.184,30.184,0,0,0-7.786,4.295c-4.2,3.41-4.977,7.866-2.126,12.478a18.759,18.759,0,0,0,6.99,6.343c4.076,2.307,8.233,4.472,12.327,6.749,6.888,3.831,12.81,8.942,18.661,14.149a23.972,23.972,0,0,0,6.368,4.275,11.422,11.422,0,0,0,9.6-.05,17,17,0,0,0,8.218-7.888C82.741,444.156,83.161,440,83.19,435.067Z" transform="translate(-7.634 -122.63)" fill="#fff"/>
      <path id="Path_3013" data-name="Path 3013" d="M1524.49,875.7c-4.731.012-9.439-.452-14.147-.847-6.282-.527-12.338-.053-18.133,2.74a19.785,19.785,0,0,1-19.333-.644,19.182,19.182,0,0,1-8.6-9.985c-.716-1.82-1.4-3.654-2.073-5.49a19.611,19.611,0,0,0-7.8-9.764c-2-1.332-4.058-2.581-6.066-3.9a12.379,12.379,0,0,1-3.33-2.845c-1.3-1.767-.932-3.3,1.038-4.287a9.085,9.085,0,0,1,4.536-.738c4.688.186,8.858,2.027,12.938,4.117,1.922.984,3.8,2.063,5.7,3.086a19.554,19.554,0,0,0,3.6,1.506,8.7,8.7,0,0,0,9.15-2.113c1.587-1.525,3.15-3.076,4.784-4.549,4.951-4.463,10.62-5.674,16.917-3.469a54.316,54.316,0,0,1,27.364,20.414,24.484,24.484,0,0,1,4.021,8.853c.852,3.944-.8,6.618-4.733,7.589a8.982,8.982,0,0,1-1.8.317C1527.179,875.734,1525.834,875.7,1524.49,875.7Zm-12.578-8.487a13.8,13.8,0,0,0,6.5-1.392,5.3,5.3,0,0,0,3.062-5.026,9.261,9.261,0,0,0-1.251-4.793,24.228,24.228,0,0,0-17.144-12.191c-5.62-1.02-9.527,1.785-10.594,7.169a18.89,18.89,0,0,0-.174,5.471c.405,4.348,2.763,7.073,6.8,8.516A36.362,36.362,0,0,0,1511.912,867.214Z" transform="translate(-721.505 -424.844)" fill="#fff"/>
      <path id="Path_3014" data-name="Path 3014" d="M1111.294,804.189a17.363,17.363,0,0,1-14.709-8.712,10.925,10.925,0,0,1-1.628-6.184c.16-3.931,1.9-6.86,5.666-8.362,1.627-.649,3.283-1.224,4.926-1.831a12.758,12.758,0,0,0,6.528-5.468c1.138-1.835,2.215-3.717,3.475-5.466,3.978-5.521,9.693-7.288,16.062-4.874,8.163,3.095,13.05,9.189,15.431,17.428a23.92,23.92,0,0,1,1.023,7.725,8.049,8.049,0,0,1-5.478,7.773,21.056,21.056,0,0,1-3.375,1.063,130.782,130.782,0,0,0-17.727,5.07A30.506,30.506,0,0,1,1111.294,804.189Z" transform="translate(-589.827 -368.036)" fill="#fff"/>
      <path id="Path_3015" data-name="Path 3015" d="M533.983,502c-.39,5.877-1.723,11.768-6.577,16.216a10.853,10.853,0,0,1-8.99,2.99c-3.462-.446-5.109-2.591-4.879-6.1a19.7,19.7,0,0,1,.951-4.783,48.058,48.058,0,0,1,6.568-13.723,14.146,14.146,0,0,1,4.732-4.348c2.644-1.406,4.642-.885,6.273,1.646C533.578,496.249,533.883,498.914,533.983,502Z" transform="translate(-284.932 -265.021)" fill="#fff"/>
      <path id="Path_3016" data-name="Path 3016" d="M442.122,444.559a19.65,19.65,0,0,1-4.694,10.768,5.6,5.6,0,0,1-7.4,1.343,13.919,13.919,0,0,1-7.441-9.225c-1.422-5.51,3.221-11.98,8.927-12.553C436.34,434.409,442.235,439.468,442.122,444.559Z" transform="translate(-234.531 -237.331)" fill="#fff"/>
      <path id="Path_3017" data-name="Path 3017" d="M1267.3,596.16a17.368,17.368,0,0,1-5.942-1.269,47.771,47.771,0,0,1-14.44-8.286,12.952,12.952,0,0,1-3.39-4.278,5.919,5.919,0,0,1,.006-5.3,12.679,12.679,0,0,1,3.729-4.461,22.375,22.375,0,0,1,10.584-4.738c4.455-.7,7.639.909,9.324,5.072a72.041,72.041,0,0,1,4.907,18.1C1272.541,594.667,1271.014,596.225,1267.3,596.16Z" transform="translate(-684.095 -306.725)" fill="#fff"/>
      <path id="Path_3018" data-name="Path 3018" d="M1418.008,593.4a21.524,21.524,0,0,1-5.233-.419,9.617,9.617,0,0,1-7.62-11c.668-4.849,3.56-7.774,8.48-8.339a26.424,26.424,0,0,1,19.093,5.213,11.51,11.51,0,0,1,3.93,4.907c1.148,2.758.328,4.967-2.345,6.32A24.286,24.286,0,0,1,1428.4,592,62.636,62.636,0,0,1,1418.008,593.4Z" transform="translate(-771.404 -314.173)" fill="#fff"/>
      <path id="Path_3019" data-name="Path 3019" d="M672.838,715.427a38.429,38.429,0,0,1-3.773,14.372,17.112,17.112,0,0,1-3.192,4.6c-2.561,2.575-5.1,2.972-8.311,1.278a24.894,24.894,0,0,1-7.926-6.793,29.057,29.057,0,0,1-6.5-15.446c-.754-8.179,2.292-14.743,8.9-19.6a6.729,6.729,0,0,1,7.5-.745C666.229,696.665,673.225,703.826,672.838,715.427Zm-8.953-3.137a6.885,6.885,0,0,0-2.865-5.051,4.531,4.531,0,0,0-7.432,2.973,7.955,7.955,0,0,0,1.192,5.842,5.467,5.467,0,0,0,5.939,2.636C662.666,718.113,663.868,716.11,663.885,712.291Z" transform="translate(-353.937 -363.156)" fill="#fff"/>
      <path id="Path_3020" data-name="Path 3020" d="M1643.325,359.3a22.394,22.394,0,0,1-.814,6.064,53.573,53.573,0,0,1-6.762,15.507c-2.609,4.021-6.387,5.313-10.979,4.765a54.019,54.019,0,0,1-9.625-2.253,95.452,95.452,0,0,0-11.713-3.005,37.306,37.306,0,0,0-17.388,1.308c-2.737.816-5.522,1.46-8.415.648a16.924,16.924,0,0,1-5.03-2.453,101.353,101.353,0,0,1-11.863-9.606c-4.007-3.759-5.433-8.247-4.606-13.711a26.77,26.77,0,0,1,19.553-22.014c4.138-1.166,8.368-.757,12.488.121a103.914,103.914,0,0,0,29.556,1.533,32.667,32.667,0,0,1,11.167.786,16.468,16.468,0,0,1,9.3,6.544A28.117,28.117,0,0,1,1643.325,359.3Zm-24.01,19.063a15.342,15.342,0,0,0,10.151-3.286c6.038-4.864,8.119-11.28,6.737-18.763-1.513-8.2-6.468-12.913-14.664-14.272a48.653,48.653,0,0,0-10-.483c-6.8.283-13.6.666-20.411.584-8-.1-14.423,3.194-19.925,8.678a12.464,12.464,0,0,0-3.518,5.922c-1.113,4.658.56,8.39,3.922,11.534,3.713,3.474,8.247,4.816,13.2,4.967a103.239,103.239,0,0,1,21.407,2.849C1610.521,377.144,1614.832,378.277,1619.315,378.363Z" transform="translate(-805.852 -172.622)" fill="#fff"/>
      <path id="Path_3021" data-name="Path 3021" d="M1477.787,694.033c3.3.136,6.406.675,8.987,2.823a6.672,6.672,0,0,1-1.552,11.579,10.405,10.405,0,0,1-2.315.76c-5.188,1-9.824-.5-14.167-3.226a9.9,9.9,0,0,1-2.84-2.657c-1.5-2.113-1.3-3.993.612-5.752a11.218,11.218,0,0,1,3.462-2.026A23.036,23.036,0,0,1,1477.787,694.033Z" transform="translate(-809.378 -382.739)" fill="#fff"/>
      <path id="Path_3022" data-name="Path 3022" d="M192.66,81.371a22.13,22.13,0,0,1-6.04,13.9c-3.017,3.208-6.464,3.758-10.478,1.96a26.146,26.146,0,0,1-7.9-5.878c-2.479-2.536-4.881-5.146-7.347-7.695a22.371,22.371,0,0,0-4.371-3.523,9.96,9.96,0,0,0-12.264.735,49.856,49.856,0,0,0-7.922,8.624c-1.34,1.7-2.642,3.42-4.125,5a12.56,12.56,0,0,1-2.734,2.241,5.134,5.134,0,0,1-5.026.284,12.138,12.138,0,0,1-3.792-2.647C113,86.3,105.361,78.2,99.07,68.963A27.422,27.422,0,0,1,95.4,61.4a14.575,14.575,0,0,1,1.711-12.2c2.141-3.56,5.093-6.455,7.788-9.562q1.361-1.569,2.635-3.213a13.834,13.834,0,0,0,2.926-8.4c.041-1.757-.084-3.5-.2-5.252a6.453,6.453,0,0,1,.151-2.306,1.837,1.837,0,0,1,2.726-1.337,12.518,12.518,0,0,1,4.694,3.633c1.795,2,3.506,4.082,5.286,6.1a106.812,106.812,0,0,0,18.3,16.688c6.923,4.905,14.435,8.14,22.977,8.875,4.535.391,9.006,1.328,12.871,3.894a37.986,37.986,0,0,1,13.981,15.828A17.012,17.012,0,0,1,192.66,81.371ZM118.054,40.449a11.58,11.58,0,0,0-2.947.387,24.616,24.616,0,0,0-14.135,9.856,13.452,13.452,0,0,0-1.817,12.016,28.561,28.561,0,0,0,4.381,8.557,85.719,85.719,0,0,0,13.509,14.753,25.121,25.121,0,0,0,3.945,2.877,8.659,8.659,0,0,0,10.278-.571,24.514,24.514,0,0,0,2.829-2.515c2.772-2.828,5.137-6.007,7.741-8.979a28.838,28.838,0,0,1,7.133-6.441c3.37-1.928,5.5-1.783,8.519.653a34.089,34.089,0,0,1,5.241,5.787A79.348,79.348,0,0,0,170.35,85.9a15.338,15.338,0,0,0,6.451,4.054,6.64,6.64,0,0,0,8.12-3.532,11.11,11.11,0,0,0,.366-9.707c-2.821-6.757-7.971-11.1-14.811-13.457-3.623-1.25-7.411-.978-11.153-.786a11.291,11.291,0,0,1-7.658-2.345c-2.466-1.872-4.886-3.8-7.343-5.69-5.5-4.218-11.031-8.391-17.177-11.652A18.661,18.661,0,0,0,118.054,40.449Z" transform="translate(-71.788 -14.516)" fill="#fff"/>
      <path id="Path_3023" data-name="Path 3023" d="M691.165,69.3a64.018,64.018,0,0,0-1.078-14.229,25.2,25.2,0,0,0-7.141-13.238,45.409,45.409,0,0,1-5.19-5.68c-2.339-3.28-3.619-6.767-1.837-10.756a10.772,10.772,0,0,1,4.355-4.837c7.019-4.272,14.431-4.74,22.079-2.016,5.2,1.851,9.963,4.649,14.924,7.02,3.936,1.881,7.768,3.963,11.539,6.152a102.025,102.025,0,0,0,19.333,8.166c8.216,2.727,15.584,6.8,21.575,13.172a21.627,21.627,0,0,1,6.129,14.77c.129,5.407-.12,10.759-2.033,15.9a9.679,9.679,0,0,1-9.337,6.8c-4.022.183-7.952-.628-11.913-1.091-7.76-.908-15.518-1.23-23.261.125a68.1,68.1,0,0,0-10.128,2.777,32.263,32.263,0,0,1-11.837,2.13,21.1,21.1,0,0,1-5.52-.957c-5.56-1.773-8.385-5.884-9.646-11.323A53.225,53.225,0,0,1,691.165,69.3ZM744.522,84.06c.941,0,1.8-.011,2.652,0,4.2.066,8.4.3,12.573-.355,5.025-.791,8.555-3.456,10.247-8.313a21.932,21.932,0,0,0,.555-12.648c-1.157-4.728-4.162-8.227-7.725-11.327-4.859-4.228-10.58-6.864-16.63-8.823a153.5,153.5,0,0,1-24.53-9.991c-6.944-3.661-14.483-5.909-22.09-7.792-3.588-.889-7.273-1.182-10.825.288-3.6,1.492-4.642,4.565-2.785,7.985a25.494,25.494,0,0,0,3.155,4.347A28.663,28.663,0,0,1,695.555,50.7a110.669,110.669,0,0,1,1.965,17.722,46.34,46.34,0,0,0,1.037,9.7c1.35,5.382,4.753,8.378,10.24,9.024a24.733,24.733,0,0,0,8.251-.678A98.055,98.055,0,0,1,744.522,84.06Z" transform="translate(-344.907 -12.945)" fill="#fff"/>
      <path id="Path_3024" data-name="Path 3024" d="M964.8,1004.318a7.572,7.572,0,0,1-1.418,4.342,4.028,4.028,0,0,1-4.4,1.713,17.115,17.115,0,0,1-11.851-10.048c-1.53-3.6,1.169-7.089,5.29-7.2,5.624-.156,11.71,5.126,12.338,10.709C964.775,1003.992,964.784,1004.154,964.8,1004.318Z" transform="translate(-525.95 -542.437)" fill="#fff"/>
      <path id="Path_3025" data-name="Path 3025" d="M80.027,621.309a46.936,46.936,0,0,1,11.931,1.851,11.866,11.866,0,0,1,8.095,6.89c3.7,8.787,6.336,17.832,5.83,27.5-.337,6.449-2.626,11.987-8.174,15.777-4.45,3.04-8.954,3.09-13.5.194a57.489,57.489,0,0,1-7.689-6.22,96.641,96.641,0,0,0-21.61-14.6,54.28,54.28,0,0,1-8.436-4.92,14.711,14.711,0,0,1-5.591-7.228,7.442,7.442,0,0,1,1.481-7.328,17.053,17.053,0,0,1,5.3-4.066C56.253,624.524,69.115,621.3,80.027,621.309Zm-8.78,5.849a25.688,25.688,0,0,0-5.385.444c-4.993.886-9.746,2.416-13.749,5.664-3.683,2.988-3.9,6.733-.725,10.288a26.172,26.172,0,0,0,4.929,4.18c7.689,5.212,15.373,10.431,22.758,16.074a25.27,25.27,0,0,0,6.308,3.7c4.907,1.865,9.155.19,11.375-4.561,1.627-3.484,1.511-7.166.672-10.782-1.523-6.571-4.913-12.2-9.248-17.291A20.781,20.781,0,0,0,71.248,627.158Z" transform="translate(-30.804 -319.189)" fill="#fff"/>
      <path id="Path_3026" data-name="Path 3026" d="M1660.41,887.226a35.071,35.071,0,0,1-12.147-2.5c-4.489-1.818-6.747-4.653-6.254-11.8a12.118,12.118,0,0,1,.454-2.4,8.029,8.029,0,0,1,8.465-6.157c7.124.252,16.539,7.142,18.954,13.87,1.4,3.909.086,6.732-3.818,8.121a13.389,13.389,0,0,1-2.125.552A16.619,16.619,0,0,1,1660.41,887.226Z" transform="translate(-870.842 -445.181)" fill="#fff"/>
      <path id="Path_3027" data-name="Path 3027" d="M697.078,757.626a7.173,7.173,0,0,1-.6,2.62A3.79,3.79,0,0,1,690.709,762a7.216,7.216,0,0,1-2.9-8.32A3.975,3.975,0,0,1,694.363,752,7.533,7.533,0,0,1,697.078,757.626Z" transform="translate(-384.522 -416.298)" fill="#fff"/>
      <path id="Path_3028" data-name="Path 3028" d="M1640.765,367.174c3.576-.175,8.3-.456,13.025-.218a26.977,26.977,0,0,1,8.129,1.562,14.71,14.71,0,0,1,7.2,5.619,18.75,18.75,0,0,1-3.692,25.554c-4.126,3.2-8.826,3.7-13.807,2.847-3.214-.552-6.4-1.242-9.559-2.031a95.806,95.806,0,0,0-19.951-2.62c-4.867-.171-9.452-1.21-13.26-4.521a15.8,15.8,0,0,1-3.2-3.673c-2.448-4.014-2.24-8.277,1.035-12.125,4.872-5.721,10.9-9.561,18.638-9.958C1630.085,367.367,1634.854,367.333,1640.765,367.174Zm8.145,5.056a45.53,45.53,0,0,0-16.095,2.721,14.908,14.908,0,0,0-7.462,5.289c-1.976,2.815-1.607,5.682,1,7.937a17.228,17.228,0,0,0,3.452,2.294,65.183,65.183,0,0,0,15.73,5.585,23.868,23.868,0,0,0,9.1.47c5.192-.857,9.542-5.327,10.019-10.322.569-5.948-2.243-10.61-7.627-12.668A21.355,21.355,0,0,0,1648.909,372.231Z" transform="translate(-842.181 -195.762)" fill="#fff"/>
      <path id="Path_3029" data-name="Path 3029" d="M111.741,126.369a14.2,14.2,0,0,1,3.789-9.481,26.484,26.484,0,0,1,10.159-7.251,15.177,15.177,0,0,1,13,.711c5.816,2.856,10.969,6.73,16.124,10.59,2.87,2.149,5.684,4.375,8.485,6.615a12.773,12.773,0,0,0,9.19,2.925c3.33-.222,6.7-.372,9.954.637a24.11,24.11,0,0,1,14.8,12.337,10.82,10.82,0,0,1,.407,9.8c-1.768,3.918-5.289,5.242-9.194,3.443a21.493,21.493,0,0,1-6.825-5.465c-2.734-3.031-5.034-6.411-7.657-9.532a25.554,25.554,0,0,0-3.813-3.781,6.773,6.773,0,0,0-7.458-.857,22.317,22.317,0,0,0-7.452,6.03c-2.742,3.125-5.4,6.326-8.133,9.456a19,19,0,0,1-4.659,3.924,7.2,7.2,0,0,1-7.02.35,22.321,22.321,0,0,1-5.616-3.872,79.283,79.283,0,0,1-14.337-16.287C113.438,133.423,111.82,130.014,111.741,126.369Zm19.248-12.21a22.341,22.341,0,0,0-2.313.167,19.984,19.984,0,0,0-3.089.719c-6.876,2.348-13.227,8.851-8.372,19.127a34.247,34.247,0,0,0,5.318,7.882,40.984,40.984,0,0,0,10.064,8.833c4.106,2.383,7.936,2.126,11.549-.938a32.294,32.294,0,0,0,9.55-14.115,10.27,10.27,0,0,0-1.806-10.139A32.783,32.783,0,0,0,141.66,117.3,21.191,21.191,0,0,0,130.989,114.158Z" transform="translate(-84.623 -82.173)" fill="#fff"/>
      <path id="Path_3030" data-name="Path 3030" d="M776.589,107.43c-9.995-.841-19.886.656-29.732,2.707a17.178,17.178,0,0,1-7.164.073c-4.758-1.021-7.869-4.526-8.875-10.051a63.4,63.4,0,0,1-.786-9.246,104.079,104.079,0,0,0-2.008-17.34,29.668,29.668,0,0,0-7-13.655,17.278,17.278,0,0,1-2.74-4.032,4.414,4.414,0,0,1,1.886-6.179,12.441,12.441,0,0,1,7.923-1.419c4.162.444,8.1,1.8,12.062,3.057A105.761,105.761,0,0,1,758.478,59.1c6.132,3.309,12.813,5.22,19.373,7.435,6.775,2.287,13.143,5.285,18.392,10.321,5.812,5.576,8,12.224,6.141,20.107-1.388,5.9-5.273,9.34-11.273,10.141a54.835,54.835,0,0,1-7.2.327C781.507,107.433,779.1,107.43,776.589,107.43Zm-11.855-4.162q0-.172,0-.344c5.011.184,10.023.281,15.036.216a35.488,35.488,0,0,0,9.314-1.169c6.374-1.813,9.62-6.737,8.85-13.311-.583-4.985-3.368-8.649-7.036-11.764-4.961-4.213-10.891-6.461-17.038-8.236-6.026-1.74-12.163-3.105-18.038-5.355-2.168-.83-4.314-1.726-6.56-2.341a18.262,18.262,0,0,0-8.33-.7,6.009,6.009,0,0,0-5.3,5.313,33.824,33.824,0,0,0-.389,7.674c.163,4.318.523,8.622.933,12.921a43.731,43.731,0,0,0,1.789,9.84,9.683,9.683,0,0,0,7.964,6.9,35.659,35.659,0,0,0,6.7.366C756.667,103.243,760.7,103.268,764.734,103.268Z" transform="translate(-373.741 -36.614)" fill="#fff"/>
      <path id="Path_3031" data-name="Path 3031" d="M125.675,676.24a12.131,12.131,0,0,1-2.5,7.7,7.529,7.529,0,0,1-8.27,2.738,20.365,20.365,0,0,1-6.864-3.666c-7.725-5.874-15.749-11.321-23.76-16.787a20.729,20.729,0,0,1-5.129-4.674c-2.124-2.867-1.989-5.491.574-7.979,3.073-2.982,6.937-4.521,10.98-5.625a28.393,28.393,0,0,1,14.141-.588,19.6,19.6,0,0,1,9.875,5.8,42.757,42.757,0,0,1,10.122,17.234A19.246,19.246,0,0,1,125.675,676.24Zm-28.1-22.631a10.744,10.744,0,0,0-6.443,1.629,4.324,4.324,0,0,0-1.6,6.057,9.694,9.694,0,0,0,1.774,2.474,63.2,63.2,0,0,0,17.075,12.278,9.337,9.337,0,0,0,3.759.981,3.628,3.628,0,0,0,4.084-3.329,9.382,9.382,0,0,0-.235-4.117,22.746,22.746,0,0,0-11.078-14.119A13.655,13.655,0,0,0,97.579,653.609Z" transform="translate(-58.889 -342.05)" fill="#fff"/>
      <path id="Path_3032" data-name="Path 3032" d="M1711.247,390.194a25.042,25.042,0,0,1,8.263,1.146c5.379,1.785,8.747,6.719,8.149,11.948a12.2,12.2,0,0,1-10.83,10.623,24.939,24.939,0,0,1-8.472-.785,64.441,64.441,0,0,1-15.325-5.658A12.794,12.794,0,0,1,1689,404.34a4.381,4.381,0,0,1-.535-5.132,11.37,11.37,0,0,1,4.191-4.352c4.065-2.565,8.654-3.495,13.3-4.211A34.434,34.434,0,0,1,1711.247,390.194Z" transform="translate(-905.536 -212.597)" fill="#fff"/>
      <path id="Path_3033" data-name="Path 3033" d="M144.035,133.075a18,18,0,0,1,5.313.945,35.5,35.5,0,0,1,13.813,8.964,15.209,15.209,0,0,1,2.891,4.213,8.057,8.057,0,0,1,.566,5.834,31.524,31.524,0,0,1-9.964,15.224c-3.619,3.051-6.821,3.15-10.918.7a42.637,42.637,0,0,1-10.867-9.919,30.646,30.646,0,0,1-4.74-7.666c-2.476-5.959-1.054-11.164,4.143-15A16.91,16.91,0,0,1,144.035,133.075Zm.039,4.889c-.285,0-.571-.015-.856,0-7.558.457-11.926,6.36-9.492,13.071a25.252,25.252,0,0,0,12.1,13.732,8.32,8.32,0,0,0,10.166-1.4,16.312,16.312,0,0,0,5.025-9.3,10.158,10.158,0,0,0-1.885-8.227A19.3,19.3,0,0,0,144.074,137.964Z" transform="translate(-97.618 -100.742)" fill="#fff"/>
      <path id="Path_3034" data-name="Path 3034" d="M820.608,140.674c-3.788,0-7.576-.043-11.364.015a41.53,41.53,0,0,1-7.677-.326c-4.323-.739-6.956-3.308-8.189-7.427a46.957,46.957,0,0,1-1.585-9.261,131.52,131.52,0,0,1-.9-17.072c.024-.609.1-1.217.166-1.823.516-4.65,3.195-6.929,8.8-6.482a28.218,28.218,0,0,1,8.347,2.242c7.119,2.892,14.617,4.538,21.952,6.723,5.776,1.72,11.294,4.018,15.907,8.051,3.126,2.733,5.61,5.9,6.516,10.08a11.4,11.4,0,0,1-8.132,13.9,38.536,38.536,0,0,1-11.005,1.3c-4.278.025-8.556.006-12.833.006Zm-7.664-32.21a33.087,33.087,0,0,0-5.867.166,7.651,7.651,0,0,0-6.573,5.45,20.251,20.251,0,0,0-.667,10.135c.918,5.374,3.952,8.843,9.36,10a100.354,100.354,0,0,0,24.653,2.044A18.963,18.963,0,0,0,842.77,134a8.212,8.212,0,0,0,4.216-8.972,12.03,12.03,0,0,0-2.426-5.275,23.486,23.486,0,0,0-10.452-7.376C827.115,109.6,819.732,108.935,812.943,108.464Z" transform="translate(-422.378 -74.43)" fill="#fff"/>
      <path id="Path_3035" data-name="Path 3035" d="M133.75,676.171a16.179,16.179,0,0,1,9.542,3.592,22.962,22.962,0,0,1,8.583,12.992,7.9,7.9,0,0,1,.119,2.674,3.584,3.584,0,0,1-4.561,3.341,15.585,15.585,0,0,1-4.535-1.78A69.512,69.512,0,0,1,128.45,686.4a12.265,12.265,0,0,1-2.434-3.194,3.642,3.642,0,0,1,1.15-5.059A11.07,11.07,0,0,1,133.75,676.171Z" transform="translate(-94.982 -368.77)" fill="#fff"/>
      <path id="Path_3036" data-name="Path 3036" d="M157.924,154.482a18.939,18.939,0,0,1,11.457,4.348,13.921,13.921,0,0,1,4.483,5.39,9.652,9.652,0,0,1,.693,6.2,16.2,16.2,0,0,1-5.608,9.345,7.323,7.323,0,0,1-8.563.906,25.7,25.7,0,0,1-11.958-12.918c-3.184-7.464,2.3-12.385,7.932-13.126C156.844,154.56,157.333,154.535,157.924,154.482ZM168.8,169.009a7.508,7.508,0,0,0-.438-2.643c-1.554-4.233-7.288-7.053-11.59-5.7a4.64,4.64,0,0,0-3.482,4.629c.031,4.171,2.421,6.964,5.644,9.173,2.039,1.4,4.311,1.9,6.584.681C167.9,173.868,168.774,171.629,168.8,169.009Z" transform="translate(-111.627 -116.912)" fill="#fff"/>
      <path id="Path_3037" data-name="Path 3037" d="M857.192,168.515a126.9,126.9,0,0,1-18.591-1.873c-6.586-1.269-9.818-4.794-10.629-11.457a18.547,18.547,0,0,1,.823-8.2,7.736,7.736,0,0,1,7.024-5.556,45.436,45.436,0,0,1,9.387.277A59.735,59.735,0,0,1,861.073,145c4.492,1.695,8.533,4.077,11.4,8.075a13.358,13.358,0,0,1,1.222,2.111c2.217,4.721.5,9.3-4.278,11.452a25.363,25.363,0,0,1-9.537,1.875C858.987,168.546,858.089,168.515,857.192,168.515Zm-.276-5.343a16.006,16.006,0,0,0,6.654-1.248c3.3-1.588,4.157-4.8,2.068-7.824a11.1,11.1,0,0,0-4.03-3.481,21.579,21.579,0,0,0-11.568-2.4,13.862,13.862,0,0,0-7.515,2.2,5.047,5.047,0,0,0-.841,7.779,9.723,9.723,0,0,0,3.142,2.283A30.39,30.39,0,0,0,856.916,163.172Z" transform="translate(-448.718 -106.931)" fill="#fff"/>
      <path id="Path_3038" data-name="Path 3038" d="M178.218,180.032c4.028,0,8.174,3.046,9.1,6.717a6.467,6.467,0,0,1-1.361,5.947,4.842,4.842,0,0,1-6.023,1.508,12,12,0,0,1-6.781-7.287C171.839,183.1,174.157,180.03,178.218,180.032Z" transform="translate(-130.735 -99.703)" fill="#fff"/>
      <path id="Path_3039" data-name="Path 3039" d="M896.069,185.235a29.914,29.914,0,0,1-11.036-2.5,9.128,9.128,0,0,1-3.99-3.127,4.089,4.089,0,0,1,.311-5.382,6.947,6.947,0,0,1,3.229-2.126,19.973,19.973,0,0,1,17.863,2.415,8.524,8.524,0,0,1,2.453,2.527c1.765,2.74,1.077,5.323-1.84,6.827A14.885,14.885,0,0,1,896.069,185.235Z" transform="translate(-486.018 -94.789)" fill="#fff"/>
    </g>
  </g>
</svg>
