<svg xmlns="http://www.w3.org/2000/svg" xmlns:xlink="http://www.w3.org/1999/xlink" width="32" height="32" viewBox="0 0 32 32"><defs><clipPath id="b"><rect width="32" height="32"/></clipPath></defs><g id="a" clip-path="url(#b)"><path d="M19.952,5.672a10.578,10.578,0,0,0-5.044-1.8.477.477,0,0,0-.474.281,3.716,3.716,0,0,0-.145.4,11.727,11.727,0,0,1,4.206,1.509.479.479,0,0,1-.505.813,12.23,12.23,0,0,0-11.979,0,.479.479,0,1,1-.505-.813A11.74,11.74,0,0,1,9.712,4.55a4.185,4.185,0,0,0-.145-.4.473.473,0,0,0-.475-.28A10.579,10.579,0,0,0,4.023,5.694C3.015,6.625,1,12.073,1,16.783a.48.48,0,0,0,.063.237c1.391,2.443,5.185,3.083,6.05,3.111h.015a.478.478,0,0,0,.387-.2l.875-1.2a9.326,9.326,0,0,1-3.634-1.706.478.478,0,0,1,.632-.718A10.567,10.567,0,0,0,12,18.217a10.57,10.57,0,0,0,6.613-1.91.478.478,0,0,1,.632.718,9.31,9.31,0,0,1-3.634,1.706l.875,1.2a.478.478,0,0,0,.387.2h.015c.865-.027,4.659-.667,6.05-3.111A.486.486,0,0,0,23,16.783C23,12.073,20.985,6.625,19.952,5.672ZM8.891,14.87a1.806,1.806,0,0,1-1.674-1.913,1.806,1.806,0,0,1,1.674-1.913,1.806,1.806,0,0,1,1.674,1.913A1.806,1.806,0,0,1,8.891,14.87Zm6.218,0a1.806,1.806,0,0,1-1.674-1.913,1.806,1.806,0,0,1,1.674-1.913,1.806,1.806,0,0,1,1.674,1.913A1.806,1.806,0,0,1,15.109,14.87Z" transform="translate(4 4.131)" fill="#e8e6e3"/></g></svg>