<svg id="Group_3" data-name="Group 3" xmlns="http://www.w3.org/2000/svg" width="83.296" height="83.296" viewBox="0 0 83.296 83.296">
  <g id="Group_1" data-name="Group 1">
    <path id="Subtraction_1" data-name="Subtraction 1" d="M28.074,59.08h0a6.651,6.651,0,0,1-3.251-1.792L14.534,47l3.145-3.145L27.968,54.143c.035.035.07.068.106.1v4.836Zm3.154-.054h0v-5L41.513,43.743l3.145,3.145-10.4,10.4a6.666,6.666,0,0,1-3.028,1.738ZM12.3,44.769,1.792,34.257A6.665,6.665,0,0,1,.054,31.228h5l10.4,10.4L12.3,44.768h0Zm34.584-.111h0l-3.144-3.144L54.027,31.228h5a6.665,6.665,0,0,1-1.738,3.029l-10.4,10.4ZM59.08,28.074H54.243c-.032-.036-.065-.072-.1-.106L43.854,17.678,47,14.534,57.288,24.823a6.65,6.65,0,0,1,1.792,3.251Zm-54.243,0H0a6.65,6.65,0,0,1,1.792-3.251l10.4-10.4,3.145,3.145-10.4,10.4c-.034.034-.068.07-.1.106ZM41.624,15.448l-10.4-10.4v-5a6.666,6.666,0,0,1,3.029,1.738L44.769,12.3l-3.145,3.145h0Zm-24.057-.111h0l-3.145-3.145,10.4-10.4A6.65,6.65,0,0,1,28.074,0V4.836c-.036.032-.072.065-.106.1l-10.4,10.4Z" transform="translate(11.997 11.997)" fill="#fff"/>
    <path id="Subtraction_2" data-name="Subtraction 2" d="M40.993,83.3V43.228L12.661,71.56l-.926-.926L40.068,42.3H0V40.993H40.068L11.736,12.661l.926-.926L40.993,40.068V0H42.3V40.068L70.634,11.736l.926.926L43.228,40.993H83.3V42.3H43.228L71.56,70.634l-.926.926L42.3,43.228V83.3Z" fill="#fff"/>
  </g>
  <rect id="Rectangle_3" data-name="Rectangle 3" width="25.536" height="25.536" rx="2" transform="translate(23.48 41.537) rotate(-45)" fill="#fff"/>
</svg>
